{"glyphs":{"0":{"ha":774,"x_min":47,"x_max":732,"o":"m 353 122 q 436 147 400 122 q 497 210 472 171 q 535 300 522 250 q 549 403 549 350 q 522 513 549 469 q 431 556 496 556 q 351 532 386 556 q 289 470 315 508 q 249 383 263 432 q 235 282 235 333 q 264 163 235 204 q 353 122 293 122 m 335 -17 q 213 7 267 -17 q 123 70 160 31 q 67 163 86 110 q 47 276 47 217 q 78 440 47 364 q 162 572 108 515 q 288 662 215 629 q 447 694 361 694 q 571 672 518 694 q 660 609 624 649 q 714 516 696 569 q 732 401 732 463 q 703 235 732 311 q 622 103 674 158 q 497 15 569 47 q 335 -17 424 -17 z "},"1":{"ha":500,"x_min":65,"x_max":458,"o":"m 249 514 l 96 471 l 65 614 l 325 676 l 458 676 l 338 0 l 157 0 l 249 514 z "},"2":{"ha":685,"x_min":-10,"x_max":618,"o":"m 4 86 q 162 188 86 138 q 295 287 238 239 q 388 381 353 335 q 422 472 422 428 q 322 546 422 546 q 233 527 272 546 q 165 488 193 508 l 92 607 q 204 667 136 639 q 361 694 272 694 q 551 647 485 694 q 618 507 618 599 q 590 397 618 449 q 515 300 561 346 q 413 215 469 254 q 299 142 356 175 q 332 144 315 143 q 364 147 347 146 q 396 147 381 147 l 615 147 l 590 0 l -10 0 l 4 86 z "},"3":{"ha":624,"x_min":-46,"x_max":578,"o":"m 101 -261 q 4 -254 39 -261 q -46 -243 -31 -247 l -4 -101 q 38 -110 7 -104 q 106 -115 68 -115 q 199 -104 156 -115 q 273 -72 242 -93 q 322 -19 304 -51 q 340 54 340 13 q 324 113 340 89 q 281 152 308 138 q 214 172 253 167 q 129 178 175 178 l 151 308 q 238 320 196 310 q 314 351 281 331 q 368 399 347 371 q 389 464 389 428 q 363 524 389 503 q 285 546 338 546 q 203 531 236 546 q 143 499 171 517 l 68 617 q 177 672 113 649 q 329 694 242 694 q 438 679 392 694 q 516 638 485 664 q 563 577 547 613 q 578 501 578 542 q 557 408 578 449 q 503 338 536 368 q 432 288 471 308 q 356 258 393 268 l 356 257 q 423 235 390 250 q 481 194 456 219 q 521 135 506 169 q 536 57 536 100 q 503 -76 536 -17 q 413 -176 471 -135 q 276 -239 356 -217 q 101 -261 196 -261 z "},"4":{"ha":796,"x_min":-22,"x_max":738,"o":"m 417 140 l 478 450 l 475 450 l 194 140 l 417 140 m 392 0 l -22 0 l -4 115 l 531 676 l 694 676 l 597 140 l 738 140 l 714 0 l 572 0 l 528 -246 l 347 -246 l 392 0 z "},"5":{"ha":613,"x_min":-53,"x_max":607,"o":"m 100 -261 q -2 -253 33 -261 q -53 -242 -37 -246 l -8 -97 q 32 -109 3 -103 q 107 -115 61 -115 q 196 -104 154 -115 q 267 -71 238 -93 q 315 -14 297 -49 q 332 67 332 21 q 311 144 332 114 q 254 194 290 175 q 167 219 215 214 q 65 222 118 225 l 156 676 l 607 676 l 582 535 l 297 535 l 260 353 q 456 269 381 339 q 531 83 531 200 q 498 -67 531 -3 q 407 -175 465 -132 q 270 -240 349 -218 q 100 -261 192 -261 z "},"6":{"ha":747,"x_min":56,"x_max":749,"o":"m 244 369 q 242 334 243 351 q 242 301 242 317 q 274 168 242 213 q 364 124 306 124 q 475 175 431 124 q 519 310 519 226 q 488 397 519 368 q 400 426 457 426 q 314 412 351 426 q 244 369 276 397 m 268 499 q 352 547 306 529 q 460 564 399 564 q 638 501 571 564 q 704 325 704 438 q 676 183 704 246 q 599 75 647 119 q 486 7 550 31 q 353 -17 422 -17 q 221 8 276 -17 q 128 78 165 33 q 74 186 92 124 q 56 324 56 249 q 103 561 56 449 q 238 758 150 674 q 451 892 326 843 q 732 942 576 942 l 749 794 q 582 774 665 794 q 436 714 499 754 q 335 624 376 675 q 268 499 293 572 z "},"7":{"ha":654,"x_min":-14,"x_max":664,"o":"m -14 -190 l 428 525 l 53 525 l 81 676 l 664 676 l 647 576 l 129 -271 l -14 -190 z "},"8":{"ha":722,"x_min":25,"x_max":719,"o":"m 357 400 q 248 323 286 365 q 210 222 210 281 q 239 150 210 178 q 322 122 268 122 q 429 159 388 122 q 471 254 471 196 q 443 328 471 294 q 357 400 415 363 m 407 561 q 501 633 468 594 q 533 717 533 671 q 510 779 533 753 q 436 806 486 806 q 350 774 383 806 q 317 692 317 743 q 341 621 317 653 q 407 561 365 589 m 250 476 q 131 678 131 561 q 156 787 131 738 q 226 870 182 836 q 328 923 269 904 q 451 942 386 942 q 564 926 514 942 q 649 882 614 910 q 701 816 683 854 q 719 733 719 778 q 667 594 719 650 q 517 489 614 538 q 622 397 581 449 q 663 271 663 346 q 634 147 663 201 q 558 57 606 93 q 446 2 510 21 q 311 -17 382 -17 q 186 1 240 -17 q 97 48 132 18 q 43 117 61 78 q 25 203 25 157 q 42 293 25 253 q 88 367 58 333 q 159 427 118 400 q 250 476 200 454 z "},"9":{"ha":744,"x_min":-1,"x_max":700,"o":"m 506 304 q 510 348 508 326 q 513 392 513 369 q 394 556 513 556 q 336 543 364 556 q 288 508 308 531 q 254 452 267 485 q 242 378 242 419 q 272 286 242 319 q 358 253 301 253 q 440 267 403 253 q 506 304 476 281 m 475 171 q 399 133 442 149 q 306 117 356 117 q 119 182 188 117 q 51 356 51 247 q 82 501 51 438 q 163 607 113 564 q 278 672 214 650 q 408 694 342 694 q 543 670 488 694 q 633 604 599 646 q 684 506 668 563 q 700 382 700 449 q 653 120 700 238 q 517 -81 606 3 q 301 -209 428 -164 q 17 -254 175 -254 l -1 -108 q 188 -81 93 -108 q 349 0 283 -53 q 426 76 396 35 q 475 171 456 118 z "}," ":{"ha":306,"x_min":0,"x_max":0,"o":""},"!":{"ha":394,"x_min":42,"x_max":404,"o":"m 158 -12 q 74 21 107 -12 q 42 101 42 54 q 74 179 42 146 q 158 213 107 213 q 241 179 208 213 q 274 101 274 146 q 241 21 274 54 q 158 -12 208 -12 m 192 925 l 404 925 l 256 313 l 117 313 l 192 925 z "},"\"":{"ha":547,"x_min":153,"x_max":588,"o":"m 165 925 l 342 925 l 269 586 l 153 586 l 165 925 m 408 925 l 588 925 l 492 586 l 372 586 l 408 925 z "},"#":{"ha":714,"x_min":38,"x_max":729,"o":"m 349 549 l 313 425 l 429 425 l 463 549 l 349 549 m 104 546 l 140 679 l 263 679 l 311 847 l 436 847 l 388 679 l 496 679 l 544 847 l 671 847 l 624 679 l 729 679 l 694 546 l 586 546 l 553 429 l 667 429 l 629 296 l 514 296 l 465 122 l 340 122 l 389 296 l 279 296 l 231 122 l 104 122 l 154 296 l 38 296 l 75 429 l 192 429 l 225 546 l 104 546 z "},"$":{"ha":610,"x_min":-7,"x_max":581,"o":"m 136 -171 l 164 -11 q 59 17 101 -3 q -7 54 17 36 l 74 185 q 97 167 82 178 q 135 147 113 157 q 185 128 157 136 q 246 121 214 121 q 367 185 367 121 q 352 217 367 204 q 313 243 338 231 q 258 270 289 256 q 192 307 226 285 q 109 377 139 338 q 79 479 79 417 q 138 619 79 565 q 288 688 196 672 l 313 832 l 465 832 l 451 760 q 447 733 449 746 q 443 710 446 721 q 439 688 440 697 q 531 666 497 681 q 581 642 565 651 l 501 513 q 444 540 482 525 q 351 556 407 556 q 275 540 303 556 q 247 497 247 525 q 260 468 247 481 q 295 443 274 456 q 345 418 317 431 q 403 390 374 406 q 457 358 432 375 q 501 320 482 342 q 530 271 519 299 q 540 208 540 243 q 478 58 540 113 q 317 -11 417 4 l 288 -171 l 136 -171 z "},"%":{"ha":1176,"x_min":50,"x_max":1125,"o":"m 876 96 q 947 135 922 96 q 971 228 971 175 q 956 284 971 264 q 908 304 940 304 q 838 266 863 304 q 813 175 813 228 q 828 117 813 138 q 876 96 844 96 m 268 372 q 338 412 314 372 q 363 506 363 451 q 347 560 363 540 q 300 581 332 581 q 229 542 254 581 q 204 451 204 504 q 220 394 204 415 q 268 372 236 372 m 864 -17 q 776 -2 814 -17 q 712 38 738 13 q 673 96 686 63 q 660 167 660 129 q 678 260 660 215 q 730 340 696 306 q 813 396 764 375 q 921 417 861 417 q 1074 364 1022 417 q 1125 233 1125 311 q 1107 138 1125 183 q 1056 58 1089 93 q 974 3 1022 24 q 864 -17 925 -17 m 774 678 l 924 678 l 404 0 l 254 0 l 774 678 m 254 260 q 166 274 204 260 q 102 314 128 289 q 63 373 76 339 q 50 444 50 407 q 68 538 50 493 q 119 617 86 583 q 201 672 153 651 q 311 693 250 693 q 465 642 414 693 q 517 511 517 590 q 498 415 517 461 q 445 335 479 369 q 363 281 411 301 q 254 260 314 260 z "},"&":{"ha":1028,"x_min":46,"x_max":992,"o":"m 308 318 l 336 401 q 432 443 397 415 q 467 507 467 471 q 404 556 467 556 q 334 531 367 556 q 277 466 301 507 q 239 372 253 425 q 225 261 225 319 q 353 129 225 129 q 447 142 401 129 l 308 318 m 583 204 q 669 274 629 235 q 778 427 739 342 q 817 599 817 513 q 749 763 817 706 q 529 842 682 821 l 558 996 q 883 876 774 975 q 992 608 992 778 q 974 482 992 546 q 924 358 957 418 q 846 244 892 299 q 743 146 800 190 q 708 117 725 131 q 671 92 690 104 q 708 50 692 67 q 740 24 725 33 q 772 11 756 15 q 807 7 788 7 q 859 15 838 7 q 892 31 881 24 l 936 -92 q 879 -115 917 -103 q 793 -128 842 -128 q 722 -119 754 -128 q 658 -92 689 -111 q 598 -46 628 -74 q 535 22 568 -18 q 433 -7 485 3 q 325 -17 381 -17 q 115 55 183 -17 q 46 246 46 126 q 77 424 46 342 q 162 567 108 507 q 286 660 215 626 q 436 694 357 694 q 582 651 529 694 q 635 528 635 607 q 622 463 635 492 q 586 411 608 435 q 537 369 564 388 q 481 338 510 351 l 583 204 z "},"'":{"ha":307,"x_min":136,"x_max":349,"o":"m 164 925 l 349 925 l 254 586 l 136 586 l 164 925 z "},"(":{"ha":458,"x_min":44,"x_max":582,"o":"m 200 -233 q 154 -165 181 -207 q 103 -62 128 -122 q 62 74 79 -3 q 44 243 44 150 q 85 515 44 392 q 182 733 125 638 q 301 896 239 829 q 406 1000 363 963 l 582 1000 q 478 889 538 958 q 366 724 419 819 q 275 508 313 628 q 238 244 238 388 q 249 85 238 157 q 278 -44 260 14 q 319 -149 297 -103 q 365 -233 342 -196 l 200 -233 z "},")":{"ha":461,"x_min":-110,"x_max":433,"o":"m -110 -233 q 7 -101 -54 -178 q 120 74 68 -24 q 206 288 172 171 q 240 542 240 406 q 227 703 240 631 q 194 834 214 776 q 151 933 174 892 q 108 1000 128 974 l 276 1000 q 326 933 299 975 q 376 834 353 892 q 417 703 400 776 q 433 543 433 631 q 413 348 433 439 q 362 178 393 257 q 290 35 331 100 q 210 -81 250 -29 q 133 -172 169 -133 q 71 -233 96 -210 l -110 -233 z "},"*":{"ha":664,"x_min":94,"x_max":654,"o":"m 115 485 l 265 629 l 94 675 l 160 806 l 318 743 l 336 925 l 490 925 l 449 743 l 622 808 l 654 668 l 461 625 l 564 474 l 433 397 l 357 561 l 228 397 l 115 485 z "},"+":{"ha":761,"x_min":69,"x_max":714,"o":"m 301 294 l 69 294 l 94 435 l 328 435 l 368 675 l 524 675 l 482 435 l 714 435 l 689 294 l 457 294 l 413 47 l 258 47 l 301 294 z "},",":{"ha":374,"x_min":3,"x_max":265,"o":"m 3 -165 q 58 -103 35 -133 q 81 -33 81 -72 q 73 4 81 -11 q 56 35 65 19 q 38 67 46 50 q 31 111 31 85 q 64 190 31 160 q 146 221 97 221 q 232 184 199 221 q 265 88 265 147 q 249 1 265 44 q 206 -83 233 -43 q 145 -161 179 -124 q 75 -229 111 -199 l 3 -165 z "},"-":{"ha":447,"x_min":64,"x_max":403,"o":"m 89 467 l 403 467 l 376 317 l 64 317 l 89 467 z "},"­":{"ha":447,"x_min":64,"x_max":403,"o":"m 89 467 l 403 467 l 376 317 l 64 317 l 89 467 z "},".":{"ha":374,"x_min":28,"x_max":268,"o":"m 149 -14 q 63 20 99 -14 q 28 104 28 54 q 63 186 28 153 q 149 219 99 219 q 233 186 199 219 q 268 104 268 153 q 233 20 268 54 q 149 -14 199 -14 z "},"/":{"ha":625,"x_min":-93,"x_max":735,"o":"m 553 1000 l 735 1000 l 90 -224 l -93 -224 l 553 1000 z "},":":{"ha":374,"x_min":28,"x_max":349,"o":"m 149 -14 q 63 20 99 -14 q 28 104 28 54 q 63 186 28 153 q 149 219 99 219 q 233 186 199 219 q 268 104 268 153 q 233 20 268 54 q 149 -14 199 -14 m 229 450 q 144 484 179 450 q 108 568 108 518 q 144 650 108 617 q 229 683 179 683 q 314 650 279 683 q 349 568 349 617 q 314 484 349 518 q 229 450 279 450 z "},";":{"ha":374,"x_min":3,"x_max":350,"o":"m 3 -165 q 58 -103 35 -133 q 81 -33 81 -72 q 73 4 81 -11 q 56 35 65 19 q 38 67 46 50 q 31 111 31 85 q 64 190 31 160 q 146 221 97 221 q 232 184 199 221 q 265 88 265 147 q 249 1 265 44 q 206 -83 233 -43 q 145 -161 179 -124 q 75 -229 111 -199 l 3 -165 m 231 450 q 144 484 179 450 q 110 568 110 518 q 144 650 110 617 q 231 683 179 683 q 277 674 256 683 q 315 649 299 665 q 340 613 331 633 q 350 568 350 592 q 315 484 350 518 q 231 450 279 450 z "},";":{"ha":374,"x_min":3,"x_max":350,"o":"m 3 -165 q 58 -103 35 -133 q 81 -33 81 -72 q 73 4 81 -11 q 56 35 65 19 q 38 67 46 50 q 31 111 31 85 q 64 190 31 160 q 146 221 97 221 q 232 184 199 221 q 265 88 265 147 q 249 1 265 44 q 206 -83 233 -43 q 145 -161 179 -124 q 75 -229 111 -199 l 3 -165 m 231 450 q 144 484 179 450 q 110 568 110 518 q 144 650 110 617 q 231 683 179 683 q 277 674 256 683 q 315 649 299 665 q 340 613 331 633 q 350 568 350 592 q 315 484 350 518 q 231 450 279 450 z "},"<":{"ha":578,"x_min":63,"x_max":543,"o":"m 63 346 l 456 664 l 543 554 l 272 338 l 474 126 l 368 28 l 63 346 z "},"=":{"ha":700,"x_min":44,"x_max":665,"o":"m 69 307 l 619 307 l 594 165 l 44 165 l 69 307 m 115 567 l 665 567 l 640 425 l 92 425 l 115 567 z "},">":{"ha":578,"x_min":35,"x_max":515,"o":"m 35 139 l 307 357 l 106 565 l 210 663 l 515 346 l 122 28 l 35 139 z "},"?":{"ha":564,"x_min":54,"x_max":590,"o":"m 171 -12 q 87 21 119 -12 q 54 101 54 54 q 87 179 54 146 q 171 213 119 213 q 255 179 222 213 q 288 101 288 146 q 255 21 288 54 q 171 -12 222 -12 m 146 383 q 160 442 151 417 q 183 486 169 467 q 217 521 197 506 q 263 553 236 536 q 315 585 292 569 q 357 617 339 600 q 385 654 375 633 q 394 704 394 675 q 367 767 394 743 q 286 790 340 790 q 219 780 247 790 q 172 761 190 769 l 114 896 q 203 928 151 915 q 326 942 256 942 q 444 924 394 942 q 526 878 493 907 q 574 813 558 850 q 590 733 590 775 q 573 640 590 681 q 527 570 556 600 q 464 517 499 540 q 396 476 429 494 q 329 429 351 453 q 300 365 307 406 l 290 310 l 133 310 l 146 383 z "},"@":{"ha":1099,"x_min":56,"x_max":1061,"o":"m 506 239 q 558 260 535 239 q 599 315 581 281 q 631 395 617 350 q 654 490 644 440 l 663 529 q 633 537 651 533 q 597 540 614 540 q 539 521 564 540 q 496 469 514 501 q 469 394 478 436 q 460 307 460 353 q 469 259 460 279 q 506 239 479 239 m 538 -136 q 336 -101 425 -136 q 185 -3 247 -65 q 89 146 122 60 q 56 335 56 232 q 94 535 56 438 q 202 709 133 633 q 367 831 271 785 q 578 878 463 878 q 788 842 697 878 q 940 745 879 806 q 1031 606 1000 685 q 1061 443 1061 528 q 1041 308 1061 369 q 984 203 1021 247 q 896 135 947 160 q 782 111 844 111 q 674 144 707 111 q 635 231 640 178 l 631 231 q 603 190 619 211 q 564 153 586 169 q 513 125 542 136 q 450 114 485 114 q 390 127 417 114 q 346 163 364 140 q 318 215 328 185 q 308 279 308 246 q 328 421 308 354 q 386 539 349 488 q 478 620 424 590 q 603 650 533 650 q 717 638 663 650 q 806 613 771 625 l 767 381 q 759 333 763 357 q 756 290 756 310 q 769 246 756 263 q 806 229 782 229 q 857 243 832 229 q 900 283 882 257 q 929 348 918 310 q 940 433 940 386 q 915 574 940 513 q 841 677 889 635 q 726 741 793 719 q 576 763 660 763 q 429 731 499 763 q 307 642 360 699 q 223 508 254 586 q 192 339 192 431 q 283 76 192 171 q 553 -19 375 -19 q 666 -7 613 -19 q 753 21 719 6 l 797 -89 q 749 -106 778 -97 q 687 -121 721 -114 q 615 -132 653 -128 q 538 -136 576 -136 z "},"A":{"ha":917,"x_min":-40,"x_max":835,"o":"m 547 556 q 539 617 542 588 q 533 669 536 646 q 528 721 531 696 l 525 721 q 503 669 515 696 q 478 617 492 646 q 449 556 464 588 l 331 331 l 582 331 l 547 556 m 158 0 l -40 0 l 474 925 l 660 925 l 835 0 l 632 0 l 606 174 l 249 174 l 158 0 z "},"B":{"ha":828,"x_min":54,"x_max":793,"o":"m 271 149 l 379 149 q 523 187 479 149 q 567 293 567 225 q 531 376 567 347 q 425 406 496 406 l 317 406 l 271 149 m 444 543 q 565 581 526 543 q 603 679 603 619 q 573 753 603 728 q 476 778 543 778 l 382 778 l 340 543 l 444 543 m 219 925 l 514 925 q 625 913 574 925 q 714 874 676 900 q 772 808 751 849 q 793 714 793 768 q 739 556 793 614 q 596 475 685 497 l 596 472 q 712 415 665 460 q 758 292 758 371 q 729 161 758 217 q 648 70 700 106 q 524 17 596 35 q 364 0 451 0 l 54 0 l 219 925 z "},"C":{"ha":850,"x_min":69,"x_max":886,"o":"m 465 -17 q 288 15 363 -17 q 164 99 213 46 q 92 224 115 153 q 69 376 69 296 q 109 593 69 490 q 221 773 149 696 q 394 896 293 850 q 618 942 494 942 q 786 922 724 942 q 886 874 849 901 l 792 729 q 715 766 758 753 q 607 779 671 779 q 472 749 533 779 q 366 665 410 718 q 298 540 322 611 q 274 386 274 468 q 324 213 274 279 q 483 146 375 146 q 605 170 554 146 q 696 226 656 194 l 774 86 q 724 50 754 68 q 653 17 693 32 q 567 -7 614 3 q 465 -17 519 -17 z "},"D":{"ha":960,"x_min":53,"x_max":935,"o":"m 381 157 q 533 186 467 157 q 642 267 599 215 q 708 392 686 319 q 731 550 731 464 q 669 715 731 661 q 478 768 608 768 l 382 768 l 274 157 l 381 157 m 217 925 l 488 925 q 684 899 600 925 q 824 824 768 872 q 907 708 879 776 q 935 557 935 640 q 898 344 935 446 q 788 167 861 243 q 603 45 714 90 q 344 0 493 0 l 53 0 l 217 925 z "},"E":{"ha":725,"x_min":53,"x_max":740,"o":"m 217 925 l 740 925 l 711 764 l 379 764 l 342 556 l 635 556 l 607 403 l 315 403 l 271 161 l 614 161 l 585 0 l 53 0 l 217 925 z "},"F":{"ha":704,"x_min":54,"x_max":740,"o":"m 219 925 l 740 925 l 713 764 l 383 764 l 342 538 l 632 538 l 604 385 l 315 385 l 247 0 l 54 0 l 219 925 z "},"G":{"ha":972,"x_min":71,"x_max":935,"o":"m 499 -17 q 308 15 389 -17 q 175 101 228 47 q 97 228 122 156 q 71 382 71 300 q 113 599 71 497 q 231 777 156 701 q 410 897 307 853 q 636 942 514 942 q 742 935 696 942 q 825 919 789 929 q 888 895 861 908 q 935 868 914 882 l 833 719 q 747 761 801 743 q 619 779 692 779 q 476 749 540 779 q 367 667 413 719 q 299 542 322 615 q 275 385 275 469 q 331 209 275 276 q 506 142 386 142 q 613 156 574 142 q 665 178 651 171 l 697 363 l 528 363 l 554 514 l 908 514 l 831 74 q 786 47 815 63 q 715 18 757 32 q 619 -6 674 4 q 499 -17 565 -17 z "},"H":{"ha":1017,"x_min":53,"x_max":1007,"o":"m 217 925 l 408 925 l 344 561 l 751 561 l 815 925 l 1007 925 l 842 0 l 650 0 l 722 400 l 317 400 l 244 0 l 53 0 l 217 925 z "},"I":{"ha":435,"x_min":60,"x_max":418,"o":"m 225 925 l 418 925 l 253 0 l 60 0 l 225 925 z "},"J":{"ha":436,"x_min":-179,"x_max":426,"o":"m -49 -283 q -128 -276 -97 -283 q -179 -260 -160 -268 l -119 -101 q -94 -110 -111 -106 q -56 -114 -78 -114 q 29 -83 0 -114 q 72 24 58 -53 l 233 925 l 426 925 l 260 -3 q 156 -215 235 -147 q -49 -283 78 -283 z "},"K":{"ha":865,"x_min":54,"x_max":932,"o":"m 714 925 l 932 925 l 519 485 l 789 0 l 578 0 l 328 454 l 247 0 l 54 0 l 219 925 l 411 925 l 339 519 l 714 925 z "},"L":{"ha":688,"x_min":53,"x_max":611,"o":"m 218 925 l 411 925 l 275 158 l 611 158 l 585 0 l 53 0 l 218 925 z "},"M":{"ha":1214,"x_min":6,"x_max":1122,"o":"m 294 925 l 476 925 l 556 336 q 563 251 561 292 q 568 193 565 210 l 571 193 q 597 253 579 211 q 638 336 615 294 l 935 925 l 1122 925 l 1081 0 l 889 0 l 919 485 q 926 574 922 535 q 932 624 929 613 l 929 624 q 908 576 924 613 q 871 493 893 539 l 625 0 l 442 0 l 379 489 q 370 573 374 533 q 365 624 367 613 l 363 624 q 350 572 360 613 q 326 485 340 532 l 182 0 l 6 0 l 294 925 z "},"N":{"ha":1007,"x_min":50,"x_max":1000,"o":"m 215 925 l 404 925 l 649 432 q 694 330 676 374 q 714 275 711 286 l 717 275 q 719 296 717 281 q 723 332 721 311 q 729 378 725 353 q 738 429 733 404 l 825 925 l 1000 925 l 835 0 l 663 0 l 403 522 q 360 615 375 575 q 340 671 346 656 l 338 671 q 332 618 336 660 q 318 528 328 576 l 224 0 l 50 0 l 215 925 z "},"O":{"ha":1043,"x_min":72,"x_max":1015,"o":"m 494 142 q 631 176 571 142 q 731 266 690 210 q 792 393 771 322 q 813 539 813 464 q 800 635 813 590 q 761 713 788 679 q 694 765 735 746 q 596 783 653 783 q 458 750 518 783 q 358 661 399 717 q 296 535 317 606 q 275 390 275 465 q 289 292 275 338 q 330 214 303 247 q 399 161 357 181 q 494 142 440 142 m 482 -17 q 306 15 382 -17 q 177 103 229 47 q 99 232 125 158 q 72 388 72 306 q 110 593 72 493 q 219 771 149 693 q 388 895 289 849 q 610 942 488 942 q 788 910 711 942 q 915 824 864 878 q 990 697 965 769 q 1015 542 1015 624 q 978 334 1015 435 q 872 156 940 233 q 703 31 803 78 q 482 -17 604 -17 z "},"P":{"ha":810,"x_min":53,"x_max":817,"o":"m 419 478 q 572 526 524 478 q 619 657 619 575 q 586 744 619 714 q 475 775 553 775 l 383 775 l 331 478 l 419 478 m 217 925 l 507 925 q 632 909 575 925 q 730 862 689 893 q 794 784 771 831 q 817 678 817 738 q 786 524 817 590 q 700 415 756 458 q 567 351 644 372 q 397 329 490 329 l 303 329 l 244 0 l 53 0 l 217 925 z "},"Q":{"ha":1044,"x_min":72,"x_max":1015,"o":"m 493 138 q 631 172 571 138 q 731 264 690 207 q 792 392 771 321 q 813 539 813 464 q 800 635 813 590 q 761 713 788 679 q 694 765 735 746 q 596 783 653 783 q 458 750 518 783 q 358 661 399 717 q 296 535 317 606 q 275 390 275 465 q 289 292 275 338 q 330 211 303 246 q 398 157 357 176 q 493 138 439 138 m 560 -11 q 628 -79 589 -60 q 718 -99 667 -99 q 803 -84 767 -99 q 854 -58 839 -69 l 906 -187 q 825 -224 878 -204 q 696 -243 772 -243 q 588 -231 639 -243 q 492 -189 538 -218 q 405 -112 446 -160 q 325 8 364 -64 q 215 68 263 31 q 136 156 168 106 q 88 265 104 206 q 72 388 72 324 q 110 593 72 493 q 219 771 149 693 q 388 895 289 849 q 610 942 488 942 q 788 910 711 942 q 915 824 864 878 q 990 697 965 769 q 1015 542 1015 624 q 984 350 1015 443 q 894 181 953 257 q 750 54 835 106 q 560 -11 665 3 z "},"R":{"ha":857,"x_min":54,"x_max":813,"o":"m 450 519 q 577 562 536 519 q 618 672 618 604 q 587 750 618 725 q 488 775 556 775 l 386 775 l 339 519 l 450 519 m 219 925 l 517 925 q 737 865 661 925 q 813 696 813 806 q 793 581 813 631 q 738 496 774 531 q 655 440 703 461 q 551 408 607 418 l 551 406 q 594 357 572 389 q 644 263 615 325 l 771 0 l 565 0 l 443 265 q 414 322 426 300 q 390 358 401 344 q 364 376 378 371 q 332 381 350 381 l 315 381 l 247 0 l 54 0 l 219 925 z "},"S":{"ha":682,"x_min":-15,"x_max":675,"o":"m 279 -17 q 170 -6 218 -17 q 86 22 122 6 q 25 55 50 38 q -15 86 0 72 l 90 218 q 119 195 101 208 q 160 170 136 182 q 215 150 183 158 q 286 142 246 142 q 393 171 361 142 q 425 244 425 200 q 417 286 425 268 q 392 322 408 304 q 348 362 375 340 q 283 413 321 383 q 222 466 251 439 q 168 526 192 493 q 130 597 144 558 q 115 686 115 636 q 139 798 115 750 q 204 878 163 846 q 302 926 246 910 q 425 942 358 942 q 519 933 479 942 q 590 913 560 925 q 640 888 619 901 q 675 864 661 875 l 583 728 q 520 767 560 747 q 419 788 481 788 q 331 763 360 788 q 303 694 303 739 q 311 655 303 672 q 335 620 319 638 q 374 584 350 603 q 429 540 397 565 q 497 487 463 514 q 557 427 531 460 q 600 353 583 394 q 617 258 617 313 q 595 148 617 199 q 531 61 574 97 q 426 4 489 25 q 279 -17 363 -17 z "},"T":{"ha":739,"x_min":99,"x_max":818,"o":"m 351 764 l 99 764 l 126 925 l 818 925 l 790 764 l 544 764 l 408 0 l 215 0 l 351 764 z "},"U":{"ha":972,"x_min":97,"x_max":968,"o":"m 451 -17 q 277 10 349 -17 q 164 88 206 38 q 110 208 122 138 q 113 368 97 279 l 210 925 l 403 925 l 306 375 q 321 199 283 253 q 467 144 358 144 q 556 158 518 144 q 620 199 593 171 q 665 269 647 226 q 693 368 682 311 l 792 925 l 968 925 l 868 356 q 735 76 835 168 q 451 -17 636 -17 z "},"V":{"ha":897,"x_min":118,"x_max":981,"o":"m 118 925 l 318 925 l 413 371 q 420 322 417 347 q 426 273 424 296 q 431 233 429 250 q 433 211 432 217 l 436 211 q 446 234 439 217 q 463 274 453 251 q 484 322 472 296 q 507 371 496 347 l 782 925 l 981 925 l 488 0 l 306 0 l 118 925 z "},"W":{"ha":1243,"x_min":125,"x_max":1325,"o":"m 125 925 l 321 925 l 351 451 q 354 393 353 422 q 356 339 356 364 q 358 294 357 314 q 358 267 358 275 l 361 267 q 371 294 364 275 q 388 339 378 313 q 410 395 399 365 q 435 457 422 425 l 631 925 l 819 925 l 860 447 q 865 335 864 386 q 868 267 867 283 l 872 267 q 896 334 878 285 q 938 443 914 383 l 1132 925 l 1325 925 l 917 0 l 735 0 l 696 506 q 690 621 692 565 q 686 700 689 676 l 683 700 q 653 621 675 676 q 604 506 632 565 l 383 0 l 207 0 l 125 925 z "},"X":{"ha":843,"x_min":-29,"x_max":889,"o":"m 147 925 l 353 925 l 475 621 l 686 925 l 889 925 q 718 700 793 799 q 655 617 686 657 q 600 546 624 578 q 547 475 572 510 l 754 0 l 549 0 l 415 333 l 176 0 l -29 0 l 342 479 l 147 925 z "},"Y":{"ha":824,"x_min":122,"x_max":906,"o":"m 324 349 l 122 925 l 322 925 l 450 525 l 451 525 l 707 925 l 906 925 l 515 349 l 453 0 l 260 0 l 324 349 z "},"Z":{"ha":757,"x_min":-12,"x_max":800,"o":"m 11 128 l 528 768 l 142 768 l 171 925 l 800 925 l 778 800 l 257 157 l 676 157 l 649 0 l -12 0 l 11 128 z "},"[":{"ha":465,"x_min":-8,"x_max":546,"o":"m 206 1000 l 546 1000 l 521 863 l 354 863 l 188 -86 l 356 -86 l 331 -224 l -8 -224 l 206 1000 z "},"\\":{"ha":594,"x_min":111,"x_max":500,"o":"m 111 1000 l 279 1000 l 500 -224 l 332 -224 l 111 1000 z "},"]":{"ha":465,"x_min":-62,"x_max":492,"o":"m -39 -86 l 128 -86 l 294 863 l 126 863 l 151 1000 l 492 1000 l 278 -224 l -62 -224 l -39 -86 z "},"^":{"ha":814,"x_min":78,"x_max":751,"o":"m 444 925 l 569 925 l 751 400 l 590 400 l 482 739 l 251 400 l 78 400 l 444 925 z "},"_":{"ha":588,"x_min":-107,"x_max":511,"o":"m -82 -112 l 511 -112 l 485 -256 l -107 -256 l -82 -112 z "},"`":{"ha":694,"x_min":207,"x_max":517,"o":"m 207 939 l 435 939 l 517 751 l 363 751 l 207 939 z "},"a":{"ha":725,"x_min":36,"x_max":699,"o":"m 286 139 q 401 231 342 139 q 494 514 460 324 l 500 550 q 472 556 489 553 q 435 558 454 558 q 355 535 393 558 q 288 469 317 511 q 241 367 258 426 q 224 236 224 307 q 286 139 224 139 m 211 -17 q 84 42 132 -17 q 36 206 36 101 q 67 404 36 314 q 155 559 99 494 q 290 659 211 624 q 463 694 368 694 q 615 681 554 694 q 699 656 675 667 l 642 347 q 608 122 617 207 q 599 0 600 38 l 421 0 q 429 83 424 39 q 443 164 435 128 l 440 164 q 398 94 421 126 q 347 37 375 61 q 286 -2 319 13 q 211 -17 253 -17 z "},"b":{"ha":743,"x_min":22,"x_max":700,"o":"m 293 119 q 376 141 338 119 q 444 203 415 163 q 491 303 474 244 q 508 436 508 361 q 494 510 508 482 q 447 538 479 538 q 328 445 388 538 q 229 164 269 353 l 222 128 q 247 122 231 125 q 293 119 264 119 m 274 -17 q 104 -3 168 -17 q 22 18 40 11 l 200 1000 l 379 1000 l 319 675 q 303 595 311 629 q 285 521 296 561 l 288 521 q 332 588 308 557 q 384 643 356 619 q 447 681 413 667 q 524 694 481 694 q 653 632 607 694 q 700 465 700 569 q 669 267 700 356 q 583 115 639 178 q 448 17 526 51 q 274 -17 369 -17 z "},"c":{"ha":590,"x_min":31,"x_max":610,"o":"m 297 -17 q 99 57 168 -17 q 31 254 31 131 q 63 435 31 354 q 151 574 96 517 q 280 663 207 632 q 435 694 353 694 q 546 681 506 694 q 610 651 586 667 l 538 515 q 495 536 519 526 q 426 546 471 546 q 347 527 385 546 q 279 473 308 508 q 232 388 250 438 q 214 275 214 338 q 243 166 214 200 q 325 132 272 132 q 405 153 371 132 q 458 190 439 174 l 529 69 q 491 40 514 56 q 439 13 468 25 q 374 -8 410 0 q 297 -17 339 -17 z "},"d":{"ha":729,"x_min":35,"x_max":771,"o":"m 283 139 q 344 162 313 139 q 404 231 375 185 q 459 347 433 276 q 503 514 485 418 l 508 551 q 479 557 499 554 q 436 560 460 560 q 354 538 393 560 q 286 474 315 515 q 240 374 257 432 q 222 243 222 315 q 237 167 222 196 q 283 139 251 139 m 215 -17 q 83 46 131 -17 q 35 213 35 108 q 65 410 35 321 q 151 562 96 499 q 281 660 206 625 q 444 694 356 694 q 501 692 481 694 q 533 686 521 689 l 590 1000 l 771 1000 l 651 347 q 617 122 626 207 q 608 0 608 38 l 429 0 q 438 84 433 39 q 451 165 443 129 l 449 165 q 404 95 428 128 q 353 38 381 63 q 291 -2 325 13 q 215 -17 257 -17 z "},"e":{"ha":639,"x_min":32,"x_max":628,"o":"m 224 368 q 392 413 329 382 q 454 499 454 444 q 390 554 454 554 q 342 543 367 554 q 294 509 317 532 q 252 451 271 486 q 224 368 233 415 m 214 253 q 321 129 218 129 q 417 151 374 129 q 493 200 461 172 l 564 81 q 517 47 543 64 q 457 15 490 29 q 383 -8 424 1 q 292 -17 342 -17 q 179 3 228 -17 q 98 59 131 24 q 49 144 65 94 q 32 254 32 194 q 63 429 32 349 q 145 569 93 510 q 268 661 197 628 q 421 694 339 694 q 573 649 518 694 q 628 519 628 603 q 595 411 628 457 q 506 333 563 365 q 374 282 450 301 q 214 253 299 263 z "},"f":{"ha":492,"x_min":-176,"x_max":672,"o":"m 53 542 l 76 676 l 193 676 l 207 751 q 300 949 232 883 q 497 1014 368 1014 q 605 999 561 1014 q 672 971 649 985 l 600 836 q 556 858 582 849 q 499 867 531 867 q 423 837 449 867 q 388 754 397 807 l 374 676 l 526 676 l 504 542 l 349 542 l 244 -28 q 211 -153 232 -99 q 156 -244 190 -208 q 69 -299 122 -281 q -61 -318 17 -318 q -126 -312 -97 -318 q -176 -297 -154 -306 l -128 -158 q -95 -169 -112 -165 q -54 -174 -78 -174 q 25 -136 -1 -174 q 63 -39 51 -99 l 168 542 l 53 542 z "},"g":{"ha":725,"x_min":-17,"x_max":710,"o":"m 283 139 q 345 161 314 139 q 406 229 376 183 q 460 346 435 275 q 503 514 485 417 l 508 551 q 480 557 499 554 q 436 560 461 560 q 354 538 393 560 q 286 474 315 515 q 240 374 257 432 q 222 243 222 315 q 237 167 222 196 q 283 139 251 139 m 235 -318 q 88 -293 150 -318 q -17 -240 25 -268 l 64 -104 q 133 -145 90 -124 q 236 -167 176 -167 q 356 -126 317 -167 q 411 3 396 -85 l 418 36 q 432 103 425 75 q 447 158 439 131 l 444 158 q 401 93 424 124 q 351 40 378 63 q 290 3 324 17 q 215 -11 257 -11 q 83 51 132 -11 q 35 213 35 113 q 65 410 35 321 q 151 562 96 499 q 284 660 206 625 q 458 694 363 694 q 625 682 561 694 q 710 663 689 669 l 590 13 q 549 -138 575 -75 q 481 -241 522 -201 q 378 -299 439 -281 q 235 -318 318 -318 z "},"h":{"ha":736,"x_min":22,"x_max":701,"o":"m 204 1000 l 383 1000 l 325 678 q 307 592 315 626 q 292 526 299 557 l 294 526 q 333 583 311 553 q 383 638 354 613 q 451 678 413 663 q 538 694 489 694 q 664 628 626 694 q 678 438 701 563 l 599 0 l 419 0 l 494 429 q 493 511 504 486 q 449 536 482 536 q 390 515 421 536 q 328 439 360 493 q 266 292 296 385 q 211 56 236 199 l 201 0 l 22 0 l 204 1000 z "},"i":{"ha":374,"x_min":36,"x_max":388,"o":"m 158 676 l 339 676 l 215 0 l 36 0 l 158 676 m 279 771 q 201 802 231 771 q 171 878 171 833 q 201 952 171 921 q 279 983 231 983 q 358 952 328 983 q 388 878 388 921 q 358 802 388 833 q 279 771 328 771 z "},"j":{"ha":351,"x_min":-210,"x_max":378,"o":"m -81 -318 q -163 -310 -133 -318 q -210 -296 -193 -303 l -154 -154 q -131 -162 -147 -157 q -92 -167 -114 -167 q -15 -133 -39 -167 q 22 -19 8 -99 l 149 676 l 328 676 l 204 -31 q 172 -147 193 -94 q 117 -238 151 -200 q 35 -297 83 -276 q -81 -318 -14 -318 m 269 771 q 190 802 221 771 q 160 878 160 833 q 190 952 160 921 q 269 983 221 983 q 347 952 317 983 q 378 878 378 921 q 347 802 378 833 q 269 771 317 771 z "},"k":{"ha":685,"x_min":21,"x_max":731,"o":"m 204 0 l 21 0 l 196 1000 l 378 1000 l 274 403 l 525 676 l 731 676 l 440 371 l 615 0 l 425 0 l 264 343 l 204 0 z "},"l":{"ha":369,"x_min":33,"x_max":393,"o":"m 214 1000 l 393 1000 l 213 0 l 33 0 l 214 1000 z "},"m":{"ha":1114,"x_min":22,"x_max":1079,"o":"m 144 676 l 318 676 q 314 642 317 663 q 307 601 311 622 q 298 560 303 581 q 289 522 293 539 l 292 522 q 331 582 308 551 q 381 638 353 613 q 447 678 410 663 q 531 694 483 694 q 597 682 569 694 q 640 647 624 669 q 665 595 657 625 q 672 531 672 565 l 675 531 q 720 594 696 564 q 774 646 744 624 q 838 681 803 668 q 917 694 874 694 q 1042 629 1004 694 q 1056 429 1079 564 l 978 0 l 800 0 l 876 419 q 878 504 886 472 q 832 536 871 536 q 774 514 804 536 q 713 436 743 492 q 653 288 682 381 q 600 56 625 196 l 590 0 l 411 0 l 488 419 q 490 503 497 469 q 442 536 482 536 q 384 514 414 536 q 324 437 354 492 q 265 290 294 382 q 211 56 236 197 l 201 0 l 22 0 l 144 676 z "},"n":{"ha":736,"x_min":22,"x_max":701,"o":"m 144 676 l 318 676 q 313 642 317 663 q 306 601 310 622 q 297 558 301 579 q 289 521 293 538 l 292 521 q 331 581 308 550 q 383 636 353 611 q 451 678 413 661 q 538 694 489 694 q 664 628 626 694 q 678 438 701 563 l 599 0 l 419 0 l 494 429 q 493 511 504 486 q 449 536 482 536 q 390 515 421 536 q 328 439 360 493 q 266 292 296 385 q 211 56 236 199 l 201 0 l 22 0 l 144 676 z "},"o":{"ha":715,"x_min":32,"x_max":683,"o":"m 319 122 q 398 150 364 122 q 455 220 432 178 q 490 313 478 263 q 501 410 501 364 q 476 518 501 481 q 400 556 451 556 q 323 528 357 556 q 265 460 289 501 q 228 367 240 418 q 215 269 215 317 q 241 163 215 203 q 319 122 267 122 m 303 -17 q 186 6 236 -17 q 101 67 136 28 q 49 156 67 106 q 32 265 32 207 q 61 431 32 353 q 141 568 90 510 q 262 660 192 626 q 414 694 332 694 q 528 673 478 694 q 613 614 579 651 q 665 524 647 576 q 683 413 683 472 q 656 242 683 321 q 577 106 628 164 q 456 16 526 49 q 303 -17 386 -17 z "},"p":{"ha":729,"x_min":-36,"x_max":696,"o":"m 292 117 q 376 139 336 117 q 444 202 415 161 q 491 302 474 243 q 508 436 508 361 q 494 510 508 482 q 447 538 479 538 q 328 444 388 538 q 229 163 269 350 l 222 125 q 247 119 231 122 q 292 117 263 117 m 143 676 l 317 676 q 302 594 310 631 q 283 518 294 558 l 286 518 q 330 586 307 554 q 381 642 353 618 q 443 681 408 667 q 522 694 478 694 q 649 632 603 694 q 696 465 696 569 q 666 267 696 356 q 582 115 636 178 q 453 17 528 51 q 292 -17 379 -17 q 231 -13 254 -17 q 197 -7 208 -10 l 143 -303 l -36 -303 l 143 676 z "},"q":{"ha":725,"x_min":35,"x_max":710,"o":"m 283 139 q 403 233 342 139 q 503 514 465 326 l 508 550 q 479 556 499 553 q 435 560 460 560 q 353 538 392 560 q 285 474 314 515 q 239 375 256 433 q 222 243 222 317 q 237 167 222 196 q 283 139 251 139 m 411 4 q 428 86 419 49 q 447 158 436 124 l 444 158 q 400 90 424 122 q 349 35 376 58 q 290 -3 322 11 q 215 -17 257 -17 q 83 46 131 -17 q 35 213 35 108 q 65 414 35 325 q 151 565 96 503 q 285 661 207 628 q 458 694 363 694 q 624 682 558 694 q 710 663 689 669 l 533 -303 l 354 -303 l 411 4 z "},"r":{"ha":535,"x_min":22,"x_max":588,"o":"m 144 676 l 318 676 q 312 634 315 657 q 303 588 308 611 q 294 542 299 564 q 285 507 289 521 l 288 507 q 327 574 304 540 q 378 634 350 607 q 438 678 406 661 q 510 694 471 694 q 588 681 557 694 l 526 507 q 501 516 515 513 q 468 519 488 519 q 397 499 432 519 q 329 427 363 479 q 266 285 296 375 q 211 56 236 196 l 201 0 l 22 0 l 144 676 z "},"s":{"ha":524,"x_min":-29,"x_max":519,"o":"m 194 -17 q 113 -10 149 -17 q 51 8 78 -3 q 3 30 24 18 q -29 51 -17 42 l 46 174 q 106 139 71 157 q 190 121 142 121 q 253 138 232 121 q 274 183 274 156 q 244 244 274 214 q 171 318 214 274 q 106 401 132 358 q 79 501 79 443 q 142 641 79 588 q 319 694 206 694 q 436 678 388 694 q 519 635 485 663 l 440 518 q 394 544 424 531 q 326 558 365 558 q 254 501 254 558 q 278 451 254 476 q 340 388 301 426 q 385 340 364 363 q 423 292 407 317 q 448 242 439 268 q 457 183 457 215 q 391 37 457 90 q 194 -17 325 -17 z "},"t":{"ha":513,"x_min":46,"x_max":531,"o":"m 46 542 l 69 676 l 178 676 l 210 850 l 401 901 l 360 676 l 531 676 l 507 542 l 335 542 l 279 236 q 274 163 269 188 q 306 138 278 138 q 358 152 333 138 q 406 182 382 167 l 463 58 q 373 8 428 33 q 239 -17 318 -17 q 106 40 142 -17 q 94 222 71 96 l 153 542 l 46 542 z "},"u":{"ha":736,"x_min":35,"x_max":714,"o":"m 199 -18 q 72 48 110 -18 q 58 239 35 114 l 138 676 l 318 676 l 242 247 q 243 165 232 190 q 288 140 254 140 q 344 162 314 140 q 406 236 375 183 q 467 380 438 289 q 522 608 497 471 l 535 676 l 714 676 l 656 347 q 621 122 631 207 q 610 0 611 38 l 432 0 q 442 87 436 38 q 456 171 449 136 l 453 171 q 410 106 433 139 q 357 44 388 72 q 288 -1 326 17 q 199 -18 249 -18 z "},"v":{"ha":661,"x_min":63,"x_max":711,"o":"m 63 676 l 253 676 l 286 333 q 290 261 289 296 q 292 214 290 226 l 294 214 l 522 676 l 711 676 l 335 0 l 167 0 l 63 676 z "},"w":{"ha":1008,"x_min":67,"x_max":1056,"o":"m 67 676 l 254 676 l 271 354 q 272 269 272 308 q 271 218 271 229 l 274 218 l 485 676 l 643 676 l 663 361 q 666 272 665 310 q 667 222 667 233 l 669 222 l 872 676 l 1056 676 l 725 0 l 558 0 l 526 465 l 524 465 l 294 0 l 135 0 l 67 676 z "},"x":{"ha":671,"x_min":-53,"x_max":694,"o":"m 78 676 l 278 676 l 360 483 l 499 676 l 694 676 l 429 353 l 596 0 l 396 0 l 307 221 l 144 0 l -53 0 l 239 349 l 78 676 z "},"y":{"ha":690,"x_min":-122,"x_max":736,"o":"m 7 -312 q -81 -303 -51 -312 q -122 -287 -111 -294 l -61 -144 q -35 -154 -54 -149 q 15 -160 -17 -160 q 72 -151 47 -160 q 119 -124 97 -143 q 163 -74 142 -106 q 208 1 183 -43 l 75 676 l 264 676 l 324 290 q 329 230 328 260 q 332 190 331 200 l 335 190 q 348 230 338 200 q 371 290 358 260 l 547 676 l 736 676 l 403 36 q 315 -121 357 -56 q 228 -229 274 -186 q 128 -292 182 -272 q 7 -312 75 -312 z "},"z":{"ha":621,"x_min":-12,"x_max":622,"o":"m 4 100 l 369 538 l 93 538 l 118 676 l 622 676 l 603 569 l 243 139 l 533 139 l 510 0 l -12 0 l 4 100 z "},"{":{"ha":551,"x_min":32,"x_max":632,"o":"m 275 -224 q 205 -211 236 -224 q 153 -174 174 -199 q 124 -116 132 -150 q 122 -37 115 -82 l 163 186 q 146 290 175 253 q 32 329 117 326 l 57 469 q 183 502 143 469 q 236 606 224 535 l 275 829 q 301 909 283 876 q 345 962 319 942 q 403 991 371 982 q 469 1000 435 1000 l 632 1000 l 607 863 l 522 863 q 463 839 481 863 q 438 768 444 815 l 403 565 q 348 447 389 486 q 249 392 307 407 l 249 389 q 327 334 300 372 q 342 222 354 296 l 304 7 q 304 -65 294 -43 q 357 -86 314 -86 l 442 -86 l 418 -224 l 275 -224 z "},"|":{"ha":392,"x_min":117,"x_max":275,"o":"m 117 1042 l 275 1042 l 275 -347 l 117 -347 l 117 1042 z "},"}":{"ha":551,"x_min":-62,"x_max":539,"o":"m -39 -86 l 46 -86 q 106 -62 89 -86 q 132 8 124 -39 l 169 224 q 222 338 182 300 q 322 394 263 376 l 322 397 q 244 454 271 414 q 229 569 217 494 l 264 769 q 264 841 274 819 q 213 863 254 863 l 126 863 l 151 1000 l 303 1000 q 366 988 336 1000 q 416 953 396 976 q 445 895 436 929 q 446 815 454 861 l 408 606 q 428 504 397 540 q 539 465 460 468 l 514 325 q 392 290 435 324 q 336 186 349 257 l 294 -53 q 226 -185 278 -147 q 100 -224 175 -224 l -62 -224 l -39 -86 z "},"~":{"ha":811,"x_min":56,"x_max":756,"o":"m 539 229 q 454 242 489 229 q 390 269 419 254 q 331 297 361 285 q 261 310 301 310 q 185 290 214 310 q 140 253 157 269 l 56 363 q 90 394 69 376 q 138 426 111 411 q 199 451 165 440 q 269 461 232 461 q 349 449 317 461 q 410 421 381 436 q 471 393 439 406 q 547 381 503 381 q 622 399 589 381 q 674 438 654 418 l 756 329 q 719 295 740 313 q 669 263 697 278 q 609 239 642 249 q 539 229 576 229 z "},"Ä":{"ha":917,"x_min":-40,"x_max":835,"o":"m 547 556 q 539 617 542 588 q 533 669 536 646 q 528 721 531 696 l 525 721 q 503 669 515 696 q 478 617 492 646 q 449 556 464 588 l 331 331 l 582 331 l 547 556 m 158 0 l -40 0 l 474 925 l 660 925 l 835 0 l 632 0 l 606 174 l 249 174 l 158 0 m 418 1007 q 346 1035 374 1007 q 318 1103 318 1063 q 346 1171 318 1143 q 418 1199 374 1199 q 490 1171 463 1199 q 517 1103 517 1143 q 489 1035 517 1063 q 418 1007 461 1007 m 707 1007 q 635 1035 663 1007 q 608 1103 608 1063 q 635 1171 608 1143 q 707 1199 663 1199 q 779 1171 751 1199 q 807 1103 807 1143 q 779 1035 807 1063 q 707 1007 751 1007 z "},"Å":{"ha":917,"x_min":-40,"x_max":835,"o":"m 547 556 q 539 617 542 588 q 533 669 536 646 q 528 721 531 696 l 525 721 q 503 669 515 696 q 478 617 492 646 q 449 556 464 588 l 331 331 l 582 331 l 547 556 m 550 1076 q 597 1098 581 1076 q 613 1147 613 1119 q 597 1197 613 1176 q 550 1217 581 1217 q 504 1197 521 1217 q 488 1147 488 1176 q 504 1098 488 1119 q 550 1076 521 1076 m 158 0 l -40 0 l 474 925 l 660 925 l 835 0 l 632 0 l 606 174 l 249 174 l 158 0 m 550 999 q 494 1010 521 999 q 446 1040 467 1021 q 413 1087 425 1060 q 400 1146 400 1114 q 413 1205 400 1178 q 446 1252 425 1232 q 494 1283 467 1272 q 550 1294 521 1294 q 606 1283 579 1294 q 654 1253 633 1272 q 688 1206 675 1233 q 700 1147 700 1179 q 688 1087 700 1114 q 654 1040 675 1060 q 606 1010 633 1021 q 550 999 579 999 z "},"Ç":{"ha":853,"x_min":69,"x_max":886,"o":"m 378 -10 q 240 38 299 3 q 144 124 182 72 q 88 240 106 175 q 69 376 69 304 q 109 593 69 490 q 221 773 149 696 q 394 896 293 850 q 618 942 494 942 q 786 922 724 942 q 886 874 849 901 l 792 729 q 715 766 758 753 q 607 779 671 779 q 472 749 533 779 q 366 665 410 718 q 298 540 322 611 q 274 386 274 468 q 324 213 274 279 q 483 146 375 146 q 605 170 554 146 q 696 226 656 194 l 774 86 q 726 51 754 69 q 660 19 697 33 q 577 -6 622 4 q 482 -17 532 -15 l 460 -76 q 532 -114 504 -86 q 560 -189 560 -142 q 513 -283 560 -247 q 386 -319 465 -319 q 313 -312 342 -319 q 271 -299 285 -306 l 301 -217 q 326 -226 311 -221 q 367 -231 342 -231 q 414 -219 396 -231 q 432 -182 432 -207 q 424 -154 432 -165 q 401 -137 415 -143 q 369 -131 388 -132 q 333 -131 351 -129 l 378 -10 z "},"É":{"ha":725,"x_min":53,"x_max":819,"o":"m 217 925 l 740 925 l 711 764 l 379 764 l 342 556 l 635 556 l 607 403 l 315 403 l 271 161 l 614 161 l 585 0 l 53 0 l 217 925 m 583 1189 l 819 1189 l 597 1001 l 438 1001 l 583 1189 z "},"Ñ":{"ha":1007,"x_min":50,"x_max":1000,"o":"m 215 925 l 404 925 l 649 432 q 694 330 676 374 q 714 275 711 286 l 717 275 q 719 296 717 281 q 723 332 721 311 q 729 378 725 353 q 738 429 733 404 l 825 925 l 1000 925 l 835 0 l 663 0 l 403 522 q 360 615 375 575 q 340 671 346 656 l 338 671 q 332 618 336 660 q 318 528 328 576 l 224 0 l 50 0 l 215 925 m 669 1008 q 619 1016 639 1008 q 582 1033 599 1024 q 549 1049 565 1042 q 513 1057 533 1057 q 467 1042 489 1057 q 433 1017 446 1028 l 367 1089 q 397 1125 379 1107 q 435 1158 414 1143 q 480 1183 456 1174 q 532 1193 504 1193 q 583 1185 563 1193 q 619 1169 603 1178 q 651 1152 636 1160 q 688 1144 667 1144 q 737 1159 715 1144 q 769 1186 758 1174 l 838 1114 q 807 1077 825 1096 q 767 1043 789 1058 q 721 1018 746 1028 q 669 1008 696 1008 z "},"Ö":{"ha":1043,"x_min":72,"x_max":1015,"o":"m 494 142 q 631 176 571 142 q 731 266 690 210 q 792 393 771 322 q 813 539 813 464 q 800 635 813 590 q 761 713 788 679 q 694 765 735 746 q 596 783 653 783 q 458 750 518 783 q 358 661 399 717 q 296 535 317 606 q 275 390 275 465 q 289 292 275 338 q 330 214 303 247 q 399 161 357 181 q 494 142 440 142 m 482 -17 q 306 15 382 -17 q 177 103 229 47 q 99 232 125 158 q 72 388 72 306 q 110 593 72 493 q 219 771 149 693 q 388 895 289 849 q 610 942 488 942 q 788 910 711 942 q 915 824 864 878 q 990 697 965 769 q 1015 542 1015 624 q 978 334 1015 435 q 872 156 940 233 q 703 31 803 78 q 482 -17 604 -17 m 485 1007 q 413 1035 440 1007 q 385 1103 385 1063 q 413 1171 385 1143 q 485 1199 440 1199 q 556 1171 529 1199 q 583 1103 583 1143 q 556 1035 583 1063 q 485 1007 528 1007 m 774 1007 q 702 1035 729 1007 q 675 1103 675 1063 q 702 1171 675 1143 q 774 1199 729 1199 q 846 1171 818 1199 q 874 1103 874 1143 q 846 1035 874 1063 q 774 1007 818 1007 z "},"Ü":{"ha":972,"x_min":97,"x_max":968,"o":"m 451 -17 q 277 10 349 -17 q 164 88 206 38 q 110 208 122 138 q 113 368 97 279 l 210 925 l 403 925 l 306 375 q 321 199 283 253 q 467 144 358 144 q 556 158 518 144 q 620 199 593 171 q 665 269 647 226 q 693 368 682 311 l 792 925 l 968 925 l 868 356 q 735 76 835 168 q 451 -17 636 -17 m 442 1007 q 369 1035 397 1007 q 342 1103 342 1063 q 369 1171 342 1143 q 442 1199 397 1199 q 513 1171 486 1199 q 540 1103 540 1143 q 513 1035 540 1063 q 442 1007 485 1007 m 731 1007 q 659 1035 686 1007 q 632 1103 632 1063 q 659 1171 632 1143 q 731 1199 686 1199 q 803 1171 775 1199 q 831 1103 831 1143 q 803 1035 831 1063 q 731 1007 775 1007 z "},"á":{"ha":725,"x_min":36,"x_max":804,"o":"m 286 139 q 401 231 342 139 q 494 514 460 324 l 500 550 q 472 556 489 553 q 435 558 454 558 q 355 535 393 558 q 288 469 317 511 q 241 367 258 426 q 224 236 224 307 q 286 139 224 139 m 211 -17 q 84 42 132 -17 q 36 206 36 101 q 67 404 36 314 q 155 559 99 494 q 290 659 211 624 q 463 694 368 694 q 615 681 554 694 q 699 656 675 667 l 642 347 q 608 122 617 207 q 599 0 600 38 l 421 0 q 429 83 424 39 q 443 164 435 128 l 440 164 q 398 94 421 126 q 347 37 375 61 q 286 -2 319 13 q 211 -17 253 -17 m 568 939 l 804 939 l 582 751 l 422 751 l 568 939 z "},"à":{"ha":725,"x_min":36,"x_max":699,"o":"m 286 139 q 401 231 342 139 q 494 514 460 324 l 500 550 q 472 556 489 553 q 435 558 454 558 q 355 535 393 558 q 288 469 317 511 q 241 367 258 426 q 224 236 224 307 q 286 139 224 139 m 211 -17 q 84 42 132 -17 q 36 206 36 101 q 67 404 36 314 q 155 559 99 494 q 290 659 211 624 q 463 694 368 694 q 615 681 554 694 q 699 656 675 667 l 642 347 q 608 122 617 207 q 599 0 600 38 l 421 0 q 429 83 424 39 q 443 164 435 128 l 440 164 q 398 94 421 126 q 347 37 375 61 q 286 -2 319 13 q 211 -17 253 -17 m 228 939 l 456 939 l 538 751 l 383 751 l 228 939 z "},"â":{"ha":725,"x_min":36,"x_max":699,"o":"m 286 139 q 401 231 342 139 q 494 514 460 324 l 500 550 q 472 556 489 553 q 435 558 454 558 q 355 535 393 558 q 288 469 317 511 q 241 367 258 426 q 224 236 224 307 q 286 139 224 139 m 211 -17 q 84 42 132 -17 q 36 206 36 101 q 67 404 36 314 q 155 559 99 494 q 290 659 211 624 q 463 694 368 694 q 615 681 554 694 q 699 656 675 667 l 642 347 q 608 122 617 207 q 599 0 600 38 l 421 0 q 429 83 424 39 q 443 164 435 128 l 440 164 q 398 94 421 126 q 347 37 375 61 q 286 -2 319 13 q 211 -17 253 -17 m 417 974 l 554 974 l 685 753 l 540 753 l 468 849 l 364 753 l 206 753 l 417 974 z "},"ä":{"ha":725,"x_min":36,"x_max":701,"o":"m 286 139 q 401 231 342 139 q 494 514 460 324 l 500 550 q 472 556 489 553 q 435 558 454 558 q 355 535 393 558 q 288 469 317 511 q 241 367 258 426 q 224 236 224 307 q 286 139 224 139 m 211 -17 q 84 42 132 -17 q 36 206 36 101 q 67 404 36 314 q 155 559 99 494 q 290 659 211 624 q 463 694 368 694 q 615 681 554 694 q 699 656 675 667 l 642 347 q 608 122 617 207 q 599 0 600 38 l 421 0 q 429 83 424 39 q 443 164 435 128 l 440 164 q 398 94 421 126 q 347 37 375 61 q 286 -2 319 13 q 211 -17 253 -17 m 313 757 q 240 785 268 757 q 213 853 213 813 q 240 921 213 893 q 313 949 268 949 q 384 921 357 949 q 411 853 411 893 q 383 785 411 813 q 313 757 356 757 m 601 757 q 530 785 557 757 q 503 853 503 813 q 530 921 503 893 q 601 949 557 949 q 674 921 646 949 q 701 853 701 893 q 674 785 701 813 q 601 757 646 757 z "},"ã":{"ha":725,"x_min":36,"x_max":699,"o":"m 286 139 q 401 231 342 139 q 494 514 460 324 l 500 550 q 472 556 489 553 q 435 558 454 558 q 355 535 393 558 q 288 469 317 511 q 241 367 258 426 q 224 236 224 307 q 286 139 224 139 m 211 -17 q 84 42 132 -17 q 36 206 36 101 q 67 404 36 314 q 155 559 99 494 q 290 659 211 624 q 463 694 368 694 q 615 681 554 694 q 699 656 675 667 l 642 347 q 608 122 617 207 q 599 0 600 38 l 421 0 q 429 83 424 39 q 443 164 435 128 l 440 164 q 398 94 421 126 q 347 37 375 61 q 286 -2 319 13 q 211 -17 253 -17 m 522 758 q 472 766 492 758 q 435 783 451 774 q 402 799 418 792 q 365 807 386 807 q 320 792 342 807 q 286 767 299 778 l 219 839 q 249 875 232 857 q 288 908 267 893 q 333 933 308 924 q 385 943 357 943 q 435 935 415 943 q 472 919 456 928 q 504 902 489 910 q 540 894 519 894 q 590 909 568 894 q 622 936 611 924 l 690 864 q 660 827 678 846 q 620 793 642 808 q 574 768 599 778 q 522 758 549 758 z "},"å":{"ha":725,"x_min":36,"x_max":699,"o":"m 286 139 q 401 231 342 139 q 494 514 460 324 l 500 550 q 472 556 489 553 q 435 558 454 558 q 355 535 393 558 q 288 469 317 511 q 241 367 258 426 q 224 236 224 307 q 286 139 224 139 m 211 -17 q 84 42 132 -17 q 36 206 36 101 q 67 404 36 314 q 155 559 99 494 q 290 659 211 624 q 463 694 368 694 q 615 681 554 694 q 699 656 675 667 l 642 347 q 608 122 617 207 q 599 0 600 38 l 421 0 q 429 83 424 39 q 443 164 435 128 l 440 164 q 398 94 421 126 q 347 37 375 61 q 286 -2 319 13 q 211 -17 253 -17 m 440 817 q 487 838 471 817 q 503 888 503 860 q 487 937 503 917 q 440 957 471 957 q 394 937 411 957 q 378 888 378 917 q 394 838 378 860 q 440 817 411 817 m 440 739 q 384 750 411 739 q 336 781 357 761 q 303 827 315 800 q 290 886 290 854 q 303 945 290 918 q 336 992 315 972 q 384 1024 357 1013 q 440 1035 411 1035 q 497 1024 469 1035 q 544 993 524 1013 q 578 947 565 974 q 590 888 590 919 q 578 827 590 854 q 544 781 565 800 q 497 750 524 761 q 440 739 469 739 z "},"ç":{"ha":593,"x_min":31,"x_max":610,"o":"m 207 -6 q 76 86 121 18 q 31 254 31 154 q 63 435 31 354 q 151 574 96 517 q 280 663 207 632 q 435 694 353 694 q 546 681 506 694 q 610 651 586 667 l 538 515 q 495 536 519 526 q 426 546 471 546 q 347 527 385 546 q 279 473 308 508 q 232 388 250 438 q 214 275 214 338 q 243 166 214 200 q 325 132 272 132 q 405 153 371 132 q 458 190 439 174 l 529 69 q 492 42 514 57 q 443 15 471 28 q 381 -6 415 3 q 308 -17 347 -15 l 286 -76 q 358 -114 331 -86 q 386 -189 386 -142 q 339 -283 386 -247 q 213 -319 292 -319 q 140 -312 168 -319 q 97 -299 111 -306 l 128 -217 q 153 -226 138 -221 q 193 -231 168 -231 q 240 -219 222 -231 q 258 -182 258 -207 q 250 -154 258 -165 q 228 -137 242 -143 q 196 -131 214 -132 q 160 -131 178 -129 l 207 -6 z "},"é":{"ha":639,"x_min":32,"x_max":749,"o":"m 224 368 q 392 413 329 382 q 454 499 454 444 q 390 554 454 554 q 342 543 367 554 q 294 509 317 532 q 252 451 271 486 q 224 368 233 415 m 214 253 q 321 129 218 129 q 417 151 374 129 q 493 200 461 172 l 564 81 q 517 47 543 64 q 457 15 490 29 q 383 -8 424 1 q 292 -17 342 -17 q 179 3 228 -17 q 98 59 131 24 q 49 144 65 94 q 32 254 32 194 q 63 429 32 349 q 145 569 93 510 q 268 661 197 628 q 421 694 339 694 q 573 649 518 694 q 628 519 628 603 q 595 411 628 457 q 506 333 563 365 q 374 282 450 301 q 214 253 299 263 m 513 939 l 749 939 l 526 751 l 367 751 l 513 939 z "},"è":{"ha":639,"x_min":32,"x_max":628,"o":"m 224 368 q 392 413 329 382 q 454 499 454 444 q 390 554 454 554 q 342 543 367 554 q 294 509 317 532 q 252 451 271 486 q 224 368 233 415 m 214 253 q 321 129 218 129 q 417 151 374 129 q 493 200 461 172 l 564 81 q 517 47 543 64 q 457 15 490 29 q 383 -8 424 1 q 292 -17 342 -17 q 179 3 228 -17 q 98 59 131 24 q 49 144 65 94 q 32 254 32 194 q 63 429 32 349 q 145 569 93 510 q 268 661 197 628 q 421 694 339 694 q 573 649 518 694 q 628 519 628 603 q 595 411 628 457 q 506 333 563 365 q 374 282 450 301 q 214 253 299 263 m 188 939 l 415 939 l 497 751 l 343 751 l 188 939 z "},"ê":{"ha":639,"x_min":32,"x_max":629,"o":"m 224 368 q 392 413 329 382 q 454 499 454 444 q 390 554 454 554 q 342 543 367 554 q 294 509 317 532 q 252 451 271 486 q 224 368 233 415 m 214 253 q 321 129 218 129 q 417 151 374 129 q 493 200 461 172 l 564 81 q 517 47 543 64 q 457 15 490 29 q 383 -8 424 1 q 292 -17 342 -17 q 179 3 228 -17 q 98 59 131 24 q 49 144 65 94 q 32 254 32 194 q 63 429 32 349 q 145 569 93 510 q 268 661 197 628 q 421 694 339 694 q 573 649 518 694 q 628 519 628 603 q 595 411 628 457 q 506 333 563 365 q 374 282 450 301 q 214 253 299 263 m 361 974 l 499 974 l 629 753 l 485 753 l 413 849 l 308 753 l 150 753 l 361 974 z "},"ë":{"ha":639,"x_min":32,"x_max":658,"o":"m 224 368 q 392 413 329 382 q 454 499 454 444 q 390 554 454 554 q 342 543 367 554 q 294 509 317 532 q 252 451 271 486 q 224 368 233 415 m 214 253 q 321 129 218 129 q 417 151 374 129 q 493 200 461 172 l 564 81 q 517 47 543 64 q 457 15 490 29 q 383 -8 424 1 q 292 -17 342 -17 q 179 3 228 -17 q 98 59 131 24 q 49 144 65 94 q 32 254 32 194 q 63 429 32 349 q 145 569 93 510 q 268 661 197 628 q 421 694 339 694 q 573 649 518 694 q 628 519 628 603 q 595 411 628 457 q 506 333 563 365 q 374 282 450 301 q 214 253 299 263 m 269 757 q 197 785 225 757 q 169 853 169 813 q 197 921 169 893 q 269 949 225 949 q 341 921 314 949 q 368 853 368 893 q 340 785 368 813 q 269 757 313 757 m 558 757 q 487 785 514 757 q 460 853 460 813 q 487 921 460 893 q 558 949 514 949 q 631 921 603 949 q 658 853 658 893 q 631 785 658 813 q 558 757 603 757 z "},"í":{"ha":374,"x_min":36,"x_max":597,"o":"m 158 676 l 339 676 l 215 0 l 36 0 l 158 676 m 361 939 l 597 939 l 375 751 l 215 751 l 361 939 z "},"ì":{"ha":374,"x_min":24,"x_max":339,"o":"m 158 676 l 339 676 l 215 0 l 36 0 l 158 676 m 24 939 l 251 939 l 333 751 l 179 751 l 24 939 z "},"î":{"ha":374,"x_min":-6,"x_max":474,"o":"m 158 676 l 339 676 l 215 0 l 36 0 l 158 676 m 206 974 l 343 974 l 474 753 l 329 753 l 257 849 l 153 753 l -6 753 l 206 974 z "},"ï":{"ha":374,"x_min":17,"x_max":506,"o":"m 158 676 l 339 676 l 215 0 l 36 0 l 158 676 m 117 757 q 44 785 72 757 q 17 853 17 813 q 44 921 17 893 q 117 949 72 949 q 188 921 161 949 q 215 853 215 893 q 188 785 215 813 q 117 757 160 757 m 406 757 q 334 785 361 757 q 307 853 307 813 q 334 921 307 893 q 406 949 361 949 q 478 921 450 949 q 506 853 506 893 q 478 785 506 813 q 406 757 450 757 z "},"ñ":{"ha":736,"x_min":22,"x_max":701,"o":"m 144 676 l 318 676 q 313 642 317 663 q 306 601 310 622 q 297 558 301 579 q 289 521 293 538 l 292 521 q 331 581 308 550 q 383 636 353 611 q 451 678 413 661 q 538 694 489 694 q 664 628 626 694 q 678 438 701 563 l 599 0 l 419 0 l 494 429 q 493 511 504 486 q 449 536 482 536 q 390 515 421 536 q 328 439 360 493 q 266 292 296 385 q 211 56 236 199 l 201 0 l 22 0 l 144 676 m 508 758 q 458 766 478 758 q 421 783 438 774 q 388 799 404 792 q 351 807 372 807 q 306 792 328 807 q 272 767 285 778 l 206 839 q 235 875 218 857 q 274 908 253 893 q 319 933 294 924 q 371 943 343 943 q 422 935 401 943 q 458 919 442 928 q 490 902 475 910 q 526 894 506 894 q 576 909 554 894 q 608 936 597 924 l 676 864 q 646 827 664 846 q 606 793 628 808 q 560 768 585 778 q 508 758 535 758 z "},"ó":{"ha":715,"x_min":32,"x_max":757,"o":"m 319 122 q 398 150 364 122 q 455 220 432 178 q 490 313 478 263 q 501 410 501 364 q 476 518 501 481 q 400 556 451 556 q 323 528 357 556 q 265 460 289 501 q 228 367 240 418 q 215 269 215 317 q 241 163 215 203 q 319 122 267 122 m 303 -17 q 186 6 236 -17 q 101 67 136 28 q 49 156 67 106 q 32 265 32 207 q 61 431 32 353 q 141 568 90 510 q 262 660 192 626 q 414 694 332 694 q 528 673 478 694 q 613 614 579 651 q 665 524 647 576 q 683 413 683 472 q 656 242 683 321 q 577 106 628 164 q 456 16 526 49 q 303 -17 386 -17 m 521 939 l 757 939 l 535 751 l 375 751 l 521 939 z "},"ò":{"ha":715,"x_min":32,"x_max":683,"o":"m 319 122 q 398 150 364 122 q 455 220 432 178 q 490 313 478 263 q 501 410 501 364 q 476 518 501 481 q 400 556 451 556 q 323 528 357 556 q 265 460 289 501 q 228 367 240 418 q 215 269 215 317 q 241 163 215 203 q 319 122 267 122 m 303 -17 q 186 6 236 -17 q 101 67 136 28 q 49 156 67 106 q 32 265 32 207 q 61 431 32 353 q 141 568 90 510 q 262 660 192 626 q 414 694 332 694 q 528 673 478 694 q 613 614 579 651 q 665 524 647 576 q 683 413 683 472 q 656 242 683 321 q 577 106 628 164 q 456 16 526 49 q 303 -17 386 -17 m 171 939 l 399 939 l 481 751 l 326 751 l 171 939 z "},"ô":{"ha":715,"x_min":32,"x_max":683,"o":"m 319 122 q 398 150 364 122 q 455 220 432 178 q 490 313 478 263 q 501 410 501 364 q 476 518 501 481 q 400 556 451 556 q 323 528 357 556 q 265 460 289 501 q 228 367 240 418 q 215 269 215 317 q 241 163 215 203 q 319 122 267 122 m 303 -17 q 186 6 236 -17 q 101 67 136 28 q 49 156 67 106 q 32 265 32 207 q 61 431 32 353 q 141 568 90 510 q 262 660 192 626 q 414 694 332 694 q 528 673 478 694 q 613 614 579 651 q 665 524 647 576 q 683 413 683 472 q 656 242 683 321 q 577 106 628 164 q 456 16 526 49 q 303 -17 386 -17 m 363 974 l 500 974 l 631 753 l 486 753 l 414 849 l 310 753 l 151 753 l 363 974 z "},"ö":{"ha":715,"x_min":32,"x_max":683,"o":"m 319 122 q 398 150 364 122 q 455 220 432 178 q 490 313 478 263 q 501 410 501 364 q 476 518 501 481 q 400 556 451 556 q 323 528 357 556 q 265 460 289 501 q 228 367 240 418 q 215 269 215 317 q 241 163 215 203 q 319 122 267 122 m 303 -17 q 186 6 236 -17 q 101 67 136 28 q 49 156 67 106 q 32 265 32 207 q 61 431 32 353 q 141 568 90 510 q 262 660 192 626 q 414 694 332 694 q 528 673 478 694 q 613 614 579 651 q 665 524 647 576 q 683 413 683 472 q 656 242 683 321 q 577 106 628 164 q 456 16 526 49 q 303 -17 386 -17 m 274 757 q 201 785 229 757 q 174 853 174 813 q 201 921 174 893 q 274 949 229 949 q 345 921 318 949 q 372 853 372 893 q 344 785 372 813 q 274 757 317 757 m 563 757 q 491 785 518 757 q 464 853 464 813 q 491 921 464 893 q 563 949 518 949 q 635 921 607 949 q 663 853 663 893 q 635 785 663 813 q 563 757 607 757 z "},"õ":{"ha":715,"x_min":32,"x_max":683,"o":"m 319 122 q 398 150 364 122 q 455 220 432 178 q 490 313 478 263 q 501 410 501 364 q 476 518 501 481 q 400 556 451 556 q 323 528 357 556 q 265 460 289 501 q 228 367 240 418 q 215 269 215 317 q 241 163 215 203 q 319 122 267 122 m 303 -17 q 186 6 236 -17 q 101 67 136 28 q 49 156 67 106 q 32 265 32 207 q 61 431 32 353 q 141 568 90 510 q 262 660 192 626 q 414 694 332 694 q 528 673 478 694 q 613 614 579 651 q 665 524 647 576 q 683 413 683 472 q 656 242 683 321 q 577 106 628 164 q 456 16 526 49 q 303 -17 386 -17 m 478 758 q 427 766 447 758 q 390 783 407 774 q 358 799 374 792 q 321 807 342 807 q 276 792 297 807 q 242 767 254 778 l 175 839 q 205 875 188 857 q 243 908 222 893 q 288 933 264 924 q 340 943 313 943 q 391 935 371 943 q 428 919 411 928 q 460 902 444 910 q 496 894 475 894 q 545 909 524 894 q 578 936 567 924 l 646 864 q 615 827 633 846 q 576 793 597 808 q 529 768 554 778 q 478 758 504 758 z "},"ú":{"ha":736,"x_min":35,"x_max":760,"o":"m 199 -18 q 72 48 110 -18 q 58 239 35 114 l 138 676 l 318 676 l 242 247 q 243 165 232 190 q 288 140 254 140 q 344 162 314 140 q 406 236 375 183 q 467 380 438 289 q 522 608 497 471 l 535 676 l 714 676 l 656 347 q 621 122 631 207 q 610 0 611 38 l 432 0 q 442 87 436 38 q 456 171 449 136 l 453 171 q 410 106 433 139 q 357 44 388 72 q 288 -1 326 17 q 199 -18 249 -18 m 524 939 l 760 939 l 538 751 l 378 751 l 524 939 z "},"ù":{"ha":736,"x_min":35,"x_max":714,"o":"m 199 -18 q 72 48 110 -18 q 58 239 35 114 l 138 676 l 318 676 l 242 247 q 243 165 232 190 q 288 140 254 140 q 344 162 314 140 q 406 236 375 183 q 467 380 438 289 q 522 608 497 471 l 535 676 l 714 676 l 656 347 q 621 122 631 207 q 610 0 611 38 l 432 0 q 442 87 436 38 q 456 171 449 136 l 453 171 q 410 106 433 139 q 357 44 388 72 q 288 -1 326 17 q 199 -18 249 -18 m 211 939 l 439 939 l 521 751 l 367 751 l 211 939 z "},"û":{"ha":736,"x_min":35,"x_max":714,"o":"m 199 -18 q 72 48 110 -18 q 58 239 35 114 l 138 676 l 318 676 l 242 247 q 243 165 232 190 q 288 140 254 140 q 344 162 314 140 q 406 236 375 183 q 467 380 438 289 q 522 608 497 471 l 535 676 l 714 676 l 656 347 q 621 122 631 207 q 610 0 611 38 l 432 0 q 442 87 436 38 q 456 171 449 136 l 453 171 q 410 106 433 139 q 357 44 388 72 q 288 -1 326 17 q 199 -18 249 -18 m 389 974 l 526 974 l 657 753 l 513 753 l 440 849 l 336 753 l 178 753 l 389 974 z "},"ü":{"ha":736,"x_min":35,"x_max":714,"o":"m 199 -18 q 72 48 110 -18 q 58 239 35 114 l 138 676 l 318 676 l 242 247 q 243 165 232 190 q 288 140 254 140 q 344 162 314 140 q 406 236 375 183 q 467 380 438 289 q 522 608 497 471 l 535 676 l 714 676 l 656 347 q 621 122 631 207 q 610 0 611 38 l 432 0 q 442 87 436 38 q 456 171 449 136 l 453 171 q 410 106 433 139 q 357 44 388 72 q 288 -1 326 17 q 199 -18 249 -18 m 293 757 q 221 785 249 757 q 193 853 193 813 q 221 921 193 893 q 293 949 249 949 q 365 921 338 949 q 392 853 392 893 q 364 785 392 813 q 293 757 336 757 m 582 757 q 510 785 538 757 q 483 853 483 813 q 510 921 483 893 q 582 949 538 949 q 654 921 626 949 q 682 853 682 893 q 654 785 682 813 q 582 757 626 757 z "},"†":{"ha":757,"x_min":83,"x_max":764,"o":"m 276 353 l 335 528 l 235 515 l 83 515 l 111 676 l 263 676 l 357 664 l 364 810 l 397 1000 l 592 1000 l 558 810 l 514 664 l 615 676 l 764 676 l 736 515 l 586 515 l 490 528 l 485 353 l 338 -236 l 221 -236 l 276 353 z "},"°":{"ha":471,"x_min":107,"x_max":496,"o":"m 301 654 q 362 681 339 654 q 385 746 385 707 q 362 812 385 786 q 301 838 339 838 q 241 812 264 838 q 218 746 218 786 q 241 681 218 707 q 301 654 264 654 m 301 551 q 226 567 261 551 q 164 608 190 582 q 122 670 138 635 q 107 746 107 706 q 122 823 107 788 q 164 885 138 858 q 226 926 190 911 q 301 942 261 942 q 377 926 342 942 q 439 885 413 911 q 481 823 465 858 q 496 746 496 788 q 481 670 496 706 q 439 608 465 635 q 377 567 413 582 q 301 551 342 551 z "},"¢":{"ha":593,"x_min":31,"x_max":610,"o":"m 354 832 l 507 832 q 494 763 500 793 q 490 737 492 749 q 486 714 489 725 q 482 692 483 701 q 560 676 531 688 q 610 651 590 664 l 538 515 q 495 536 519 526 q 426 546 471 546 q 347 527 385 546 q 279 473 308 508 q 232 388 250 438 q 214 275 214 338 q 243 166 214 200 q 325 132 272 132 q 405 153 371 132 q 458 190 439 174 l 529 69 q 462 24 506 47 q 358 -11 418 0 l 331 -171 l 178 -171 l 207 -6 q 76 86 121 18 q 31 254 31 154 q 53 406 31 336 q 116 531 76 476 q 210 624 156 586 q 328 679 265 661 l 354 832 z "},"£":{"ha":679,"x_min":6,"x_max":732,"o":"m 383 374 q 383 364 383 368 q 381 354 382 360 q 332 226 368 278 q 258 147 296 175 l 581 147 l 554 0 l 6 0 l 26 118 q 147 223 103 157 q 203 356 192 289 q 204 365 204 360 q 206 374 204 369 l 68 374 l 90 508 l 210 508 q 212 588 210 547 q 221 675 214 629 q 543 942 267 942 q 665 926 621 942 q 732 896 708 911 l 656 758 q 610 781 638 769 q 539 793 583 793 q 453 761 486 793 q 406 656 419 729 q 397 580 399 615 q 393 508 394 544 l 592 508 l 568 374 l 383 374 z "},"§":{"ha":608,"x_min":-26,"x_max":632,"o":"m 351 268 q 381 303 371 283 q 390 350 390 322 q 358 433 390 386 q 276 539 325 479 q 272 544 274 542 q 268 549 271 546 q 231 465 231 518 q 259 388 231 428 q 331 294 288 347 q 341 281 336 288 q 351 268 346 275 m 201 647 q 179 704 188 675 q 171 765 171 733 q 193 872 171 825 q 253 951 215 919 q 343 1000 292 983 q 451 1017 394 1017 q 566 1003 525 1017 q 632 972 607 989 l 557 847 q 520 867 546 857 q 454 876 494 876 q 382 851 408 876 q 356 781 356 826 q 372 726 356 753 q 410 669 388 699 q 461 608 433 640 q 512 540 489 576 q 551 463 535 504 q 567 371 567 421 q 527 247 567 297 q 426 160 488 196 q 449 104 442 132 q 457 44 457 76 q 434 -69 457 -21 q 372 -148 411 -117 q 278 -195 332 -179 q 160 -211 224 -211 q 39 -192 85 -211 q -26 -158 -7 -174 l 54 -31 q 94 -53 68 -42 q 161 -65 121 -65 q 242 -40 213 -65 q 272 33 272 -14 q 238 116 272 74 q 163 208 204 158 q 88 317 122 258 q 54 449 54 375 q 97 569 54 522 q 201 647 139 617 z "},"•":{"ha":596,"x_min":57,"x_max":539,"o":"m 299 154 q 205 174 249 154 q 128 226 161 193 q 76 304 94 260 q 57 399 57 349 q 76 494 57 450 q 128 572 94 539 q 205 625 161 606 q 299 644 249 644 q 393 625 349 644 q 469 572 438 606 q 520 494 501 539 q 539 399 539 450 q 520 304 539 349 q 469 226 501 260 q 393 174 438 193 q 299 154 349 154 z "},"¶":{"ha":889,"x_min":90,"x_max":949,"o":"m 324 350 q 231 372 274 353 q 156 425 188 392 q 108 504 125 458 q 90 604 90 550 q 117 736 90 676 q 188 838 143 796 q 293 902 233 879 q 421 925 353 925 l 949 925 l 924 781 l 822 781 l 642 -246 l 483 -246 l 664 781 l 558 781 l 378 -246 l 218 -246 l 324 350 z "},"ß":{"ha":767,"x_min":-228,"x_max":758,"o":"m -112 -318 q -178 -312 -149 -318 q -228 -297 -207 -306 l -179 -158 q -147 -169 -164 -165 q -106 -174 -129 -174 q -27 -137 -54 -174 q 11 -39 0 -100 l 147 707 q 196 853 164 794 q 274 949 228 913 q 378 1001 319 986 q 508 1017 438 1017 q 615 1000 568 1017 q 693 955 661 983 q 742 888 725 926 q 758 804 758 849 q 742 715 758 753 q 701 649 725 678 q 647 599 676 621 q 594 558 618 576 q 553 519 569 539 q 536 476 536 500 q 564 427 536 451 q 626 373 592 403 q 688 302 660 343 q 715 201 715 261 q 647 40 715 96 q 457 -17 579 -17 q 338 -2 382 -17 q 271 26 294 13 l 332 156 q 378 132 349 144 q 447 119 408 119 q 519 140 494 119 q 543 197 543 161 q 515 252 543 228 q 454 305 488 276 q 393 368 421 333 q 365 454 365 403 q 381 522 365 493 q 421 575 397 551 q 473 620 444 599 q 525 665 501 642 q 565 715 549 688 q 581 781 581 743 q 558 850 581 824 q 488 876 535 876 q 382 835 422 876 q 326 704 342 793 l 192 -28 q 159 -153 179 -99 q 104 -244 139 -207 q 17 -299 69 -281 q -112 -318 -36 -318 z "},"®":{"ha":1143,"x_min":88,"x_max":1110,"o":"m 582 543 q 651 559 622 543 q 681 619 681 575 q 660 676 681 656 q 592 697 640 697 l 529 697 l 529 543 l 582 543 m 403 796 l 606 796 q 758 750 706 796 q 810 626 810 704 q 772 520 810 557 q 679 472 735 483 q 708 442 692 461 q 746 386 725 422 l 850 217 l 710 217 l 600 400 q 567 443 581 432 q 529 454 553 454 l 529 217 l 403 217 l 403 796 m 599 88 q 758 117 685 88 q 884 200 831 146 q 967 330 938 254 q 997 499 997 406 q 967 666 997 590 q 884 796 938 742 q 758 880 831 850 q 599 910 685 910 q 439 880 513 910 q 312 796 365 850 q 228 666 258 742 q 199 499 199 590 q 228 330 199 406 q 312 200 258 254 q 439 117 365 146 q 599 88 513 88 m 599 -19 q 400 22 493 -19 q 238 133 307 63 q 128 297 168 203 q 88 499 88 392 q 128 700 88 606 q 238 865 168 794 q 400 976 307 935 q 599 1017 493 1017 q 798 976 704 1017 q 960 865 892 935 q 1069 700 1029 794 q 1110 499 1110 606 q 1069 297 1110 392 q 960 133 1029 203 q 798 22 892 63 q 599 -19 704 -19 z "},"©":{"ha":1143,"x_min":88,"x_max":1110,"o":"m 608 188 q 487 211 543 188 q 390 276 431 235 q 327 375 350 318 q 304 499 304 432 q 328 622 304 565 q 393 721 351 679 q 490 786 435 763 q 610 810 546 810 q 680 803 649 810 q 736 785 711 796 q 781 760 761 774 q 814 735 800 747 l 740 631 q 693 661 722 644 q 614 678 664 678 q 547 664 576 678 q 498 626 518 650 q 467 569 478 601 q 456 501 456 538 q 468 427 456 461 q 502 368 481 393 q 553 329 524 343 q 619 315 583 315 q 705 338 672 315 q 757 376 738 360 l 825 276 q 792 249 813 264 q 745 219 772 233 q 684 197 718 206 q 608 188 650 188 m 599 88 q 758 117 685 88 q 884 200 831 146 q 967 330 938 254 q 997 499 997 406 q 967 666 997 590 q 884 796 938 742 q 758 880 831 850 q 599 910 685 910 q 439 880 513 910 q 312 796 365 850 q 228 666 258 742 q 199 499 199 590 q 228 330 199 406 q 312 200 258 254 q 439 117 365 146 q 599 88 513 88 m 599 -19 q 400 22 493 -19 q 238 133 307 63 q 128 297 168 203 q 88 499 88 392 q 128 700 88 606 q 238 865 168 794 q 400 976 307 935 q 599 1017 493 1017 q 798 976 704 1017 q 960 865 892 935 q 1069 700 1029 794 q 1110 499 1110 606 q 1069 297 1110 392 q 960 133 1029 203 q 798 22 892 63 q 599 -19 704 -19 z "},"™":{"ha":979,"x_min":117,"x_max":989,"o":"m 236 831 l 117 831 l 132 925 l 481 925 l 464 831 l 350 831 l 294 514 l 182 514 l 236 831 m 565 925 l 676 925 l 710 722 q 714 691 713 707 q 717 663 715 675 q 719 633 718 647 l 722 633 q 735 663 728 647 q 749 691 742 675 q 764 722 756 707 l 869 925 l 989 925 l 969 514 l 856 514 l 869 693 q 872 719 871 706 q 875 743 872 732 q 879 767 876 756 l 876 767 q 865 740 871 756 q 853 712 860 728 q 839 681 847 696 l 749 514 l 650 514 l 625 679 q 621 710 622 694 q 618 739 619 726 q 615 767 617 754 l 613 767 q 608 744 611 757 q 602 720 606 733 q 594 692 599 707 l 544 514 l 439 514 l 565 925 z "},"´":{"ha":694,"x_min":225,"x_max":607,"o":"m 371 939 l 607 939 l 385 751 l 225 751 l 371 939 z "},"¨":{"ha":694,"x_min":193,"x_max":682,"o":"m 293 757 q 221 785 249 757 q 193 853 193 813 q 221 921 193 893 q 293 949 249 949 q 365 921 338 949 q 392 853 392 893 q 364 785 392 813 q 293 757 336 757 m 582 757 q 510 785 538 757 q 483 853 483 813 q 510 921 483 893 q 582 949 538 949 q 654 921 626 949 q 682 853 682 893 q 654 785 682 813 q 582 757 626 757 z "},"≠":{"ha":901,"x_min":-176,"x_max":1082,"o":"m 603 676 l 617 751 q 624 788 619 771 q 635 822 629 806 q 584 848 613 838 q 511 858 556 858 q 427 830 457 858 q 385 735 397 801 l 374 676 l 603 676 m 936 676 l 913 542 l 758 542 l 654 -28 q 622 -152 642 -99 q 567 -242 601 -206 q 481 -297 532 -278 q 353 -315 429 -315 q 291 -309 317 -315 q 244 -296 265 -303 l 294 -158 q 324 -167 308 -164 q 361 -171 339 -171 q 435 -134 410 -171 q 472 -39 461 -97 l 578 542 l 349 542 l 244 -33 q 212 -158 232 -104 q 157 -249 192 -212 q 69 -305 122 -286 q -61 -324 17 -324 q -126 -317 -97 -324 q -176 -301 -154 -311 l -128 -164 q -94 -175 -112 -171 q -53 -179 -76 -179 q 26 -142 -1 -179 q 64 -44 53 -104 l 171 542 l 53 542 l 76 676 l 194 676 l 206 733 q 303 940 232 875 q 508 1006 374 1006 q 632 988 585 1006 q 711 950 679 971 q 906 1014 781 1014 q 1015 999 971 1014 q 1082 971 1058 985 l 1008 836 q 966 858 992 849 q 908 867 940 867 q 833 837 858 867 q 797 754 807 807 l 783 676 l 936 676 z "},"Æ":{"ha":1169,"x_min":-110,"x_max":1172,"o":"m 544 339 q 556 400 550 368 q 567 463 561 428 q 579 533 572 497 q 614 729 594 619 l 335 339 l 544 339 m 93 0 l -110 0 l 572 925 l 1172 925 l 1143 764 l 811 764 l 772 556 l 1067 556 l 1039 403 l 747 403 l 703 161 l 1046 161 l 1017 0 l 485 0 l 518 185 l 225 185 l 93 0 z "},"Ø":{"ha":1043,"x_min":31,"x_max":1049,"o":"m 796 657 q 729 582 765 621 q 661 505 699 549 q 583 417 624 461 l 372 175 q 499 139 425 139 q 635 173 575 139 q 735 263 694 207 q 796 392 775 319 q 817 539 817 464 q 796 657 817 604 m 297 271 l 508 513 q 586 601 549 557 q 654 678 624 644 q 721 753 690 717 q 667 777 697 768 q 599 786 636 786 q 461 753 521 786 q 360 664 401 719 q 298 537 319 608 q 276 390 276 465 q 297 271 276 325 m 933 804 q 998 684 976 751 q 1019 542 1019 617 q 982 334 1019 435 q 875 156 944 233 q 706 31 806 78 q 485 -17 607 -17 q 362 -2 418 -17 q 260 40 306 13 l 129 -108 l 31 -21 l 160 126 q 97 246 118 179 q 75 388 75 313 q 113 593 75 493 q 222 771 151 693 q 391 895 292 849 q 613 942 490 942 q 734 928 679 942 q 833 889 789 914 l 950 1021 l 1049 935 q 990 869 1015 897 q 969 846 979 857 q 951 825 960 835 q 933 804 942 814 z "},"∞":{"ha":1201,"x_min":-176,"x_max":1165,"o":"m 613 729 q 638 819 621 781 q 585 847 615 836 q 511 858 556 858 q 427 830 457 858 q 385 735 397 801 l 374 676 l 603 676 l 613 729 m 719 944 q 817 997 761 981 q 943 1014 872 1014 q 1076 998 1026 1014 q 1158 963 1126 982 l 1083 832 q 1032 855 1064 843 q 951 867 1000 867 q 846 838 885 867 q 793 732 807 810 l 783 676 l 1165 676 l 1043 0 l 863 0 l 961 542 l 758 542 l 654 -28 q 621 -153 642 -99 q 565 -244 600 -208 q 478 -299 531 -281 q 350 -318 426 -318 q 288 -312 314 -318 q 242 -299 261 -307 l 290 -161 q 320 -170 304 -167 q 357 -174 336 -174 q 434 -136 407 -174 q 472 -39 461 -99 l 578 542 l 349 542 l 244 -33 q 212 -158 232 -104 q 157 -249 192 -212 q 69 -305 122 -286 q -61 -324 17 -324 q -126 -317 -97 -324 q -176 -301 -154 -311 l -128 -164 q -94 -175 -112 -171 q -53 -179 -76 -179 q 26 -142 -1 -179 q 64 -44 53 -104 l 171 542 l 53 542 l 76 676 l 196 676 l 206 733 q 303 940 232 875 q 508 1006 374 1006 q 639 986 590 1006 q 719 944 688 967 z "},"±":{"ha":1214,"x_min":-176,"x_max":1232,"o":"m 603 676 l 617 751 q 624 788 619 771 q 635 822 629 806 q 584 848 613 838 q 511 858 556 858 q 427 830 457 858 q 385 735 397 801 l 374 676 l 603 676 m 917 676 l 893 542 l 757 542 l 654 -28 q 622 -152 642 -99 q 567 -242 601 -206 q 481 -297 532 -278 q 353 -315 429 -315 q 291 -309 317 -315 q 244 -296 265 -303 l 294 -158 q 324 -167 308 -164 q 361 -171 339 -171 q 435 -134 410 -171 q 472 -39 461 -97 l 578 542 l 349 542 l 244 -33 q 212 -158 232 -104 q 157 -249 192 -212 q 69 -305 122 -286 q -61 -324 17 -324 q -126 -317 -97 -324 q -176 -301 -154 -311 l -128 -164 q -94 -175 -112 -171 q -53 -179 -76 -179 q 26 -142 -1 -179 q 64 -44 53 -104 l 171 542 l 53 542 l 76 676 l 196 676 l 206 733 q 303 940 232 875 q 508 1006 374 1006 q 635 988 588 1006 q 715 947 683 969 q 951 1014 794 1014 q 1117 997 1049 1014 q 1232 961 1185 981 l 1060 0 l 879 0 l 1033 853 q 990 863 1014 860 q 932 867 965 867 q 841 841 874 867 q 794 746 808 815 l 782 676 l 917 676 z "},"≤":{"ha":1496,"x_min":97,"x_max":1389,"o":"m 513 718 l 622 718 l 622 383 l 896 718 l 1022 718 l 743 382 l 1039 0 l 904 0 l 622 364 l 622 0 l 513 0 l 513 718 m 1285 -187 l 1285 897 l 200 897 l 200 -187 l 1285 -187 m 97 1000 l 1389 1000 l 1389 -292 l 97 -292 l 97 1000 z "},"≥":{"ha":1496,"x_min":97,"x_max":1389,"o":"m 513 718 l 622 718 l 622 383 l 896 718 l 1022 718 l 743 382 l 1039 0 l 904 0 l 622 364 l 622 0 l 513 0 l 513 718 m 1285 -187 l 1285 897 l 200 897 l 200 -187 l 1285 -187 m 97 1000 l 1389 1000 l 1389 -292 l 97 -292 l 97 1000 z "},"¥":{"ha":814,"x_min":56,"x_max":899,"o":"m 493 247 l 717 247 l 694 118 l 469 118 l 449 0 l 258 0 l 279 118 l 56 118 l 79 247 l 303 247 l 317 328 l 93 328 l 115 456 l 283 456 l 121 925 l 317 925 l 444 517 l 446 517 l 703 925 l 899 925 l 583 456 l 754 456 l 731 328 l 507 328 l 493 247 z "},"µ":{"ha":772,"x_min":-36,"x_max":718,"o":"m 142 676 l 321 676 l 246 247 q 247 165 236 190 q 292 140 258 140 q 349 162 318 140 q 410 236 379 183 q 472 380 442 289 q 526 608 501 471 l 539 676 l 718 676 l 658 347 q 624 122 633 207 q 614 0 615 38 l 436 0 q 447 87 440 38 q 460 171 453 136 l 457 171 q 419 110 440 142 q 370 51 397 78 q 312 8 343 25 q 243 -8 281 -8 q 194 10 213 -8 q 190 -26 193 0 q 178 -96 186 -51 l 143 -296 l -36 -296 l 142 676 z "},"μ":{"ha":772,"x_min":-36,"x_max":718,"o":"m 142 676 l 321 676 l 246 247 q 247 165 236 190 q 292 140 258 140 q 349 162 318 140 q 410 236 379 183 q 472 380 442 289 q 526 608 501 471 l 539 676 l 718 676 l 658 347 q 624 122 633 207 q 614 0 615 38 l 436 0 q 447 87 440 38 q 460 171 453 136 l 457 171 q 419 110 440 142 q 370 51 397 78 q 312 8 343 25 q 243 -8 281 -8 q 194 10 213 -8 q 190 -26 193 0 q 178 -96 186 -51 l 143 -296 l -36 -296 l 142 676 z "},"∂":{"ha":1486,"x_min":97,"x_max":1389,"o":"m 651 -15 q 604 -11 624 -15 q 574 -1 585 -7 l 592 93 q 635 83 604 83 q 701 111 681 83 q 721 203 721 139 l 721 715 l 832 715 l 832 188 q 785 37 832 89 q 651 -15 739 -15 m 1285 -187 l 1285 897 l 200 897 l 200 -187 l 1285 -187 m 97 1000 l 1389 1000 l 1389 -292 l 97 -292 l 97 1000 z "},"∑":{"ha":885,"x_min":25,"x_max":865,"o":"m 338 406 q 248 334 278 374 q 218 240 218 294 q 250 158 218 189 q 347 126 282 126 q 500 181 422 126 l 338 406 m 431 578 q 535 655 506 618 q 564 732 564 692 q 544 789 564 767 q 486 811 525 811 q 412 783 440 811 q 383 707 383 756 q 397 640 383 671 q 431 578 410 608 m 625 307 q 714 479 682 385 l 865 454 q 713 185 813 301 l 843 0 l 629 0 l 581 68 q 453 6 519 28 q 315 -17 386 -17 q 186 1 240 -17 q 96 51 132 19 q 42 126 60 83 q 25 217 25 168 q 42 315 25 272 q 89 394 58 358 q 164 457 119 429 q 264 510 208 485 q 220 597 236 553 q 204 685 204 640 q 228 794 204 746 q 292 874 251 842 q 385 924 332 907 q 497 942 438 942 q 673 888 614 942 q 732 754 732 835 q 672 604 732 667 q 497 485 611 542 l 625 307 z "},"∏":{"ha":1496,"x_min":97,"x_max":1389,"o":"m 513 718 l 622 718 l 622 383 l 896 718 l 1022 718 l 743 382 l 1039 0 l 904 0 l 622 364 l 622 0 l 513 0 l 513 718 m 1285 -187 l 1285 897 l 200 897 l 200 -187 l 1285 -187 m 97 1000 l 1389 1000 l 1389 -292 l 97 -292 l 97 1000 z "},"π":{"ha":1143,"x_min":88,"x_max":1110,"o":"m 603 510 q 708 599 708 510 q 685 667 708 643 q 611 690 663 690 l 544 690 l 544 510 l 603 510 m 417 790 l 625 790 q 719 775 679 790 q 784 734 758 760 q 823 674 810 708 q 836 603 836 640 q 824 530 836 564 q 783 470 811 496 q 710 429 754 444 q 604 414 667 414 l 544 414 l 544 211 l 417 211 l 417 790 m 599 88 q 758 117 685 88 q 884 200 831 146 q 967 330 938 254 q 997 499 997 406 q 967 666 997 590 q 884 796 938 742 q 758 880 831 850 q 599 910 685 910 q 439 880 513 910 q 312 796 365 850 q 228 666 258 742 q 199 499 199 590 q 228 330 199 406 q 312 200 258 254 q 439 117 365 146 q 599 88 513 88 m 599 -19 q 400 22 493 -19 q 238 133 307 63 q 128 297 168 203 q 88 499 88 392 q 128 700 88 606 q 238 865 168 794 q 400 976 307 935 q 599 1017 493 1017 q 798 976 704 1017 q 960 865 892 935 q 1069 700 1029 794 q 1110 499 1110 606 q 1069 297 1110 392 q 960 133 1029 203 q 798 22 892 63 q 599 -19 704 -19 z "},"∫":{"ha":707,"x_min":-60,"x_max":747,"o":"m 196 -18 q 141 -62 164 -37 q 118 -128 118 -87 q 147 -185 118 -161 q 247 -210 176 -210 q 374 -185 322 -210 q 426 -118 426 -160 q 412 -85 426 -97 q 370 -63 397 -72 q 303 -45 343 -54 q 215 -22 264 -36 q 206 -20 210 -21 q 196 -18 201 -19 m 332 322 q 429 363 390 322 q 468 474 468 403 q 442 549 468 524 q 368 574 415 574 q 272 535 311 574 q 232 422 232 496 q 259 347 232 371 q 332 322 286 322 m 747 676 l 726 556 l 628 556 q 642 476 642 519 q 619 365 642 415 q 556 278 597 314 q 458 222 515 242 q 332 203 401 203 q 229 214 278 203 q 217 199 222 207 q 211 178 211 190 q 225 151 211 161 q 275 133 239 142 q 404 102 343 117 q 511 65 465 88 q 584 6 557 42 q 611 -86 611 -29 q 510 -268 611 -204 q 228 -332 410 -332 q 10 -283 79 -332 q -60 -157 -60 -235 q -47 -100 -60 -126 q -13 -51 -35 -74 q 38 -10 8 -28 q 99 24 67 8 q 60 65 74 42 q 46 124 46 89 q 75 201 46 171 q 140 253 104 232 q 57 418 57 308 q 81 531 57 481 q 149 618 106 582 q 250 674 192 654 q 376 693 308 693 q 492 676 442 693 l 747 676 z "},"ª":{"ha":517,"x_min":79,"x_max":560,"o":"m 261 554 q 408 813 347 554 l 413 833 q 394 838 406 836 q 369 839 382 839 q 314 823 340 839 q 267 777 288 807 q 233 705 246 747 q 221 611 221 663 q 230 571 221 588 q 261 554 239 554 m 207 438 q 115 478 151 438 q 79 592 79 518 q 103 733 79 668 q 167 844 126 797 q 265 916 208 890 q 389 942 322 942 q 499 931 456 942 q 560 913 542 919 l 519 693 q 497 537 503 597 q 492 449 492 476 l 360 449 q 365 507 363 476 q 374 565 367 538 l 371 565 q 302 474 343 510 q 207 438 261 438 z "},"º":{"ha":517,"x_min":86,"x_max":556,"o":"m 296 543 q 349 560 326 543 q 388 606 372 578 q 410 669 403 635 q 418 736 418 703 q 402 810 418 785 q 349 835 386 835 q 296 817 319 835 q 257 771 272 799 q 233 709 242 743 q 225 643 225 675 q 242 569 225 594 q 296 543 258 543 m 281 438 q 138 494 189 438 q 86 638 86 550 q 107 756 86 700 q 165 852 128 811 q 251 917 201 893 q 361 942 301 942 q 505 885 454 942 q 556 740 556 829 q 535 617 556 674 q 479 522 515 561 q 392 460 443 482 q 281 438 342 438 z "},"Ω":{"ha":1421,"x_min":97,"x_max":1389,"o":"m 875 250 l 799 464 q 783 510 790 488 q 768 550 775 532 q 756 590 761 571 l 753 590 q 740 550 746 571 q 728 509 735 532 q 713 464 721 486 l 632 250 l 875 250 m 704 714 l 813 714 l 1090 -1 l 968 -1 l 910 158 l 599 158 l 542 -1 l 431 -1 l 704 714 m 1285 -189 l 1285 896 l 200 896 l 200 -189 l 1285 -189 m 97 999 l 1389 999 l 1389 -293 l 97 -293 l 97 999 z "},"Ω":{"ha":1421,"x_min":97,"x_max":1389,"o":"m 875 250 l 799 464 q 783 510 790 488 q 768 550 775 532 q 756 590 761 571 l 753 590 q 740 550 746 571 q 728 509 735 532 q 713 464 721 486 l 632 250 l 875 250 m 704 714 l 813 714 l 1090 -1 l 968 -1 l 910 158 l 599 158 l 542 -1 l 431 -1 l 704 714 m 1285 -189 l 1285 896 l 200 896 l 200 -189 l 1285 -189 m 97 999 l 1389 999 l 1389 -293 l 97 -293 l 97 999 z "},"æ":{"ha":1007,"x_min":4,"x_max":989,"o":"m 257 118 q 336 137 300 118 q 400 183 372 156 q 396 229 396 206 q 394 258 394 244 q 397 286 394 272 l 381 286 q 306 283 340 286 q 246 269 272 281 q 200 236 217 258 q 183 181 183 214 q 203 133 183 149 q 257 118 224 118 m 590 386 q 757 418 697 390 q 817 499 817 446 q 751 554 817 554 q 705 544 729 554 q 659 514 681 535 q 619 461 638 493 q 590 386 601 429 m 208 -17 q 125 -3 163 -17 q 60 33 88 10 q 19 88 33 56 q 4 160 4 121 q 43 285 4 238 q 143 358 82 333 q 262 391 196 382 q 399 400 328 400 l 417 400 q 428 439 424 419 q 433 482 433 458 q 413 530 433 513 q 342 547 393 547 q 283 540 311 547 q 233 524 256 533 q 192 505 210 515 q 164 488 174 494 l 93 603 q 137 633 111 617 q 197 663 163 650 q 273 685 231 676 q 365 694 315 694 q 487 676 440 694 q 561 617 533 657 q 665 674 610 654 q 782 694 719 694 q 934 649 879 694 q 989 519 989 603 q 958 413 989 457 q 871 338 926 368 q 741 292 815 308 q 579 271 667 276 q 578 255 578 263 q 578 238 578 247 q 682 129 586 129 q 778 151 735 129 q 856 200 822 172 l 925 81 q 878 47 904 64 q 818 15 851 29 q 744 -8 785 1 q 653 -17 703 -17 q 526 9 579 -17 q 444 82 474 35 q 336 10 393 36 q 208 -17 279 -17 z "},"ø":{"ha":715,"x_min":-24,"x_max":757,"o":"m 258 140 q 318 119 281 119 q 399 147 364 119 q 457 218 433 175 q 492 313 481 261 q 504 410 504 364 l 504 428 l 258 140 m 464 536 q 400 558 438 558 q 322 531 357 558 q 263 460 288 503 q 226 367 239 418 q 213 268 213 315 q 213 256 213 261 q 214 243 213 250 l 464 536 m 640 578 q 683 413 683 507 q 656 242 683 321 q 577 106 628 164 q 456 16 526 49 q 303 -17 386 -17 q 227 -8 263 -17 q 163 17 192 1 l 65 -96 l -24 -24 q 28 36 6 10 q 47 58 38 47 q 63 76 56 68 q 78 96 71 86 q 32 265 32 167 q 61 431 32 353 q 141 568 90 510 q 262 660 192 626 q 414 694 332 694 q 558 658 497 694 l 668 788 l 757 717 l 640 578 z "},"¿":{"ha":585,"x_min":-8,"x_max":528,"o":"m 256 -262 q 138 -245 188 -262 q 56 -199 89 -228 q 8 -133 24 -171 q -8 -54 -8 -96 q 9 38 -8 -1 q 55 108 26 78 q 118 161 83 139 q 186 203 153 183 q 253 251 231 226 q 282 315 275 275 l 292 369 l 449 369 l 436 296 q 422 238 431 263 q 399 193 413 213 q 365 158 385 174 q 318 126 344 143 q 266 94 290 110 q 224 63 242 79 q 197 25 207 46 q 188 -25 188 4 q 215 -87 188 -64 q 294 -110 242 -110 q 363 -100 333 -110 q 410 -82 392 -90 l 468 -217 q 378 -249 431 -236 q 256 -262 326 -262 m 411 468 q 327 501 360 468 q 294 579 294 533 q 327 658 294 625 q 411 692 360 692 q 495 658 463 692 q 528 579 528 625 q 495 501 528 533 q 411 468 463 468 z "},"¡":{"ha":394,"x_min":-10,"x_max":353,"o":"m 138 367 l 278 367 l 203 -246 l -10 -246 l 138 367 m 235 468 q 152 501 185 468 q 119 579 119 533 q 152 658 119 625 q 235 692 185 692 q 320 658 288 692 q 353 579 353 625 q 320 501 353 533 q 235 468 288 468 z "},"¬":{"ha":714,"x_min":24,"x_max":689,"o":"m 269 317 q 441 369 374 328 q 508 479 508 410 q 443 543 508 543 q 390 526 415 543 q 342 478 364 508 q 302 406 321 447 q 269 317 283 364 m 263 293 q 252 250 257 272 q 243 204 247 228 l 208 0 l 24 0 l 204 1000 l 383 1000 l 329 699 q 312 618 321 656 q 294 549 303 581 l 297 549 q 340 604 317 578 q 392 651 364 631 q 452 683 419 671 q 525 694 485 694 q 644 649 600 694 q 689 528 689 603 q 672 433 689 474 q 625 360 654 392 q 558 308 596 329 q 476 269 519 286 l 640 0 l 439 0 l 263 293 z "},"√":{"ha":765,"x_min":74,"x_max":885,"o":"m 74 676 l 260 676 l 331 246 l 333 246 l 694 1000 l 885 1000 l 379 0 l 210 0 l 74 676 z "},"ƒ":{"ha":572,"x_min":-158,"x_max":731,"o":"m 63 464 l 82 600 l 224 600 l 250 753 q 347 952 274 888 q 550 1017 419 1017 q 660 1002 617 1017 q 731 971 704 988 l 660 846 q 618 864 646 853 q 551 875 590 875 q 464 841 492 875 q 425 744 436 807 l 400 600 l 557 600 l 535 464 l 376 464 l 299 3 q 207 -198 275 -135 q 7 -261 139 -261 q -97 -248 -56 -261 q -158 -224 -139 -235 l -97 -93 q -60 -109 -86 -100 q 1 -118 -35 -118 q 85 -87 58 -118 q 124 10 113 -56 l 201 464 l 63 464 z "},"≈":{"ha":1486,"x_min":97,"x_max":1389,"o":"m 433 715 l 540 715 l 703 254 q 718 209 711 231 q 732 168 725 188 l 746 126 l 749 126 q 761 168 756 146 q 774 209 767 188 q 789 254 781 231 l 956 715 l 1061 715 l 1160 0 l 1044 0 l 990 421 q 982 489 985 457 q 979 521 981 504 l 976 521 q 968 490 974 506 q 959 460 964 476 q 947 425 954 443 l 796 0 l 689 0 l 533 425 q 521 460 526 443 q 511 490 515 476 q 501 521 506 506 l 499 521 q 496 489 497 506 q 493 456 494 474 q 489 421 492 439 l 436 0 l 335 0 l 433 715 m 1285 -187 l 1285 897 l 200 897 l 200 -187 l 1285 -187 m 97 1000 l 1389 1000 l 1389 -292 l 97 -292 l 97 1000 z "},"Δ":{"ha":783,"x_min":-176,"x_max":760,"o":"m 244 -28 q 211 -153 232 -99 q 156 -244 190 -208 q 69 -299 122 -281 q -61 -318 17 -318 q -126 -312 -97 -318 q -176 -297 -154 -306 l -128 -158 q -95 -169 -112 -165 q -54 -174 -78 -174 q 25 -136 -1 -174 q 63 -39 51 -99 l 169 542 l 53 542 l 76 676 l 194 676 l 204 729 q 314 948 232 882 q 535 1014 396 1014 q 667 998 618 1014 q 749 963 717 982 l 674 832 q 623 855 656 843 q 542 867 590 867 q 436 838 475 867 q 383 732 397 810 l 374 676 l 760 676 l 635 -31 q 603 -147 624 -94 q 549 -238 582 -200 q 467 -297 515 -276 q 351 -318 418 -318 q 277 -312 303 -318 q 236 -300 251 -306 l 292 -157 q 312 -163 299 -160 q 342 -167 325 -167 q 416 -133 392 -167 q 454 -19 440 -99 l 556 542 l 349 542 l 244 -28 z "},"∆":{"ha":783,"x_min":-176,"x_max":760,"o":"m 244 -28 q 211 -153 232 -99 q 156 -244 190 -208 q 69 -299 122 -281 q -61 -318 17 -318 q -126 -312 -97 -318 q -176 -297 -154 -306 l -128 -158 q -95 -169 -112 -165 q -54 -174 -78 -174 q 25 -136 -1 -174 q 63 -39 51 -99 l 169 542 l 53 542 l 76 676 l 194 676 l 204 729 q 314 948 232 882 q 535 1014 396 1014 q 667 998 618 1014 q 749 963 717 982 l 674 832 q 623 855 656 843 q 542 867 590 867 q 436 838 475 867 q 383 732 397 810 l 374 676 l 760 676 l 635 -31 q 603 -147 624 -94 q 549 -238 582 -200 q 467 -297 515 -276 q 351 -318 418 -318 q 277 -312 303 -318 q 236 -300 251 -306 l 292 -157 q 312 -163 299 -160 q 342 -167 325 -167 q 416 -133 392 -167 q 454 -19 440 -99 l 556 542 l 349 542 l 244 -28 z "},"«":{"ha":728,"x_min":36,"x_max":744,"o":"m 36 338 l 246 608 l 440 608 l 224 332 l 335 74 l 153 74 l 36 338 m 342 338 l 551 608 l 744 608 l 529 332 l 640 74 l 458 74 l 342 338 z "},"»":{"ha":728,"x_min":-14,"x_max":692,"o":"m 200 350 l 89 608 l 271 608 l 388 343 l 179 74 l -14 74 l 200 350 m 504 350 l 393 608 l 575 608 l 692 343 l 485 74 l 290 74 l 504 350 z "},"…":{"ha":1032,"x_min":28,"x_max":926,"o":"m 149 -14 q 63 20 97 -14 q 28 103 28 54 q 63 185 28 151 q 149 218 97 218 q 232 185 197 218 q 267 103 267 151 q 232 20 267 54 q 149 -14 197 -14 m 478 -14 q 392 20 426 -14 q 358 103 358 54 q 392 185 358 151 q 478 218 426 218 q 561 185 526 218 q 596 103 596 151 q 561 20 596 54 q 478 -14 526 -14 m 807 -14 q 722 20 757 -14 q 686 103 686 54 q 722 185 686 151 q 807 218 757 218 q 891 185 856 218 q 926 103 926 151 q 891 20 926 54 q 807 -14 856 -14 z "}," ":{"ha":589,"x_min":0,"x_max":0,"o":""},"À":{"ha":917,"x_min":-40,"x_max":835,"o":"m 547 556 q 539 617 542 588 q 533 669 536 646 q 528 721 531 696 l 525 721 q 503 669 515 696 q 478 617 492 646 q 449 556 464 588 l 331 331 l 582 331 l 547 556 m 158 0 l -40 0 l 474 925 l 660 925 l 835 0 l 632 0 l 606 174 l 249 174 l 158 0 m 325 1189 l 553 1189 l 635 1001 l 481 1001 l 325 1189 z "},"Ã":{"ha":917,"x_min":-40,"x_max":835,"o":"m 547 556 q 539 617 542 588 q 533 669 536 646 q 528 721 531 696 l 525 721 q 503 669 515 696 q 478 617 492 646 q 449 556 464 588 l 331 331 l 582 331 l 547 556 m 158 0 l -40 0 l 474 925 l 660 925 l 835 0 l 632 0 l 606 174 l 249 174 l 158 0 m 606 1008 q 555 1016 575 1008 q 518 1033 535 1024 q 485 1049 501 1042 q 449 1057 469 1057 q 403 1042 425 1057 q 369 1017 382 1028 l 303 1089 q 333 1125 315 1107 q 371 1158 350 1143 q 416 1183 392 1174 q 468 1193 440 1193 q 519 1185 499 1193 q 556 1169 539 1178 q 588 1152 572 1160 q 624 1144 603 1144 q 673 1159 651 1144 q 706 1186 694 1174 l 774 1114 q 743 1077 761 1096 q 703 1043 725 1058 q 657 1018 682 1028 q 606 1008 632 1008 z "},"Õ":{"ha":1043,"x_min":72,"x_max":1015,"o":"m 494 142 q 631 176 571 142 q 731 266 690 210 q 792 393 771 322 q 813 539 813 464 q 800 635 813 590 q 761 713 788 679 q 694 765 735 746 q 596 783 653 783 q 458 750 518 783 q 358 661 399 717 q 296 535 317 606 q 275 390 275 465 q 289 292 275 338 q 330 214 303 247 q 399 161 357 181 q 494 142 440 142 m 482 -17 q 306 15 382 -17 q 177 103 229 47 q 99 232 125 158 q 72 388 72 306 q 110 593 72 493 q 219 771 149 693 q 388 895 289 849 q 610 942 488 942 q 788 910 711 942 q 915 824 864 878 q 990 697 965 769 q 1015 542 1015 624 q 978 334 1015 435 q 872 156 940 233 q 703 31 803 78 q 482 -17 604 -17 m 694 1008 q 644 1016 664 1008 q 607 1033 624 1024 q 574 1049 590 1042 q 538 1057 558 1057 q 492 1042 514 1057 q 458 1017 471 1028 l 392 1089 q 422 1125 404 1107 q 460 1158 439 1143 q 505 1183 481 1174 q 557 1193 529 1193 q 608 1185 588 1193 q 644 1169 628 1178 q 676 1152 661 1160 q 713 1144 692 1144 q 762 1159 740 1144 q 794 1186 783 1174 l 863 1114 q 832 1077 850 1096 q 792 1043 814 1058 q 746 1018 771 1028 q 694 1008 721 1008 z "},"Œ":{"ha":1274,"x_min":75,"x_max":1290,"o":"m 735 751 q 597 783 682 783 q 460 750 519 783 q 360 661 401 717 q 299 535 319 606 q 278 390 278 465 q 291 292 278 338 q 331 213 304 246 q 399 160 358 179 q 496 142 440 142 q 570 151 536 142 q 633 176 604 161 l 735 751 m 1290 925 l 1261 764 l 928 764 l 890 556 l 1185 556 l 1157 403 l 864 403 l 819 161 l 1164 161 l 1135 0 l 617 0 q 482 -17 554 -17 q 306 15 382 -17 q 179 102 231 47 q 101 231 128 157 q 75 388 75 304 q 113 593 75 493 q 222 771 151 693 q 390 895 292 849 q 608 942 488 942 q 690 938 654 942 q 758 925 726 933 l 1290 925 z "},"œ":{"ha":1088,"x_min":32,"x_max":1075,"o":"m 319 122 q 398 150 364 122 q 455 220 432 178 q 490 313 478 263 q 501 410 501 364 q 476 518 501 481 q 400 556 451 556 q 323 528 357 556 q 265 460 289 501 q 228 367 240 418 q 215 269 215 317 q 241 163 215 203 q 319 122 267 122 m 671 368 q 839 413 776 382 q 901 499 901 444 q 838 554 901 554 q 789 543 814 554 q 741 509 764 532 q 699 451 718 486 q 671 368 681 415 m 539 74 q 303 -17 444 -17 q 186 6 236 -17 q 101 67 136 28 q 49 156 67 106 q 32 265 32 207 q 61 431 32 353 q 141 568 90 510 q 262 660 192 626 q 414 694 332 694 q 538 669 488 694 q 622 593 588 644 q 735 670 675 646 q 868 694 796 694 q 1020 649 965 694 q 1075 519 1075 603 q 1042 411 1075 457 q 953 333 1010 365 q 822 282 897 301 q 661 253 746 263 q 768 129 665 129 q 865 151 821 129 q 940 200 908 172 l 1011 81 q 964 47 990 64 q 904 15 938 29 q 830 -8 871 1 q 739 -17 789 -17 q 620 6 668 -17 q 539 74 572 29 z "},"–":{"ha":778,"x_min":58,"x_max":731,"o":"m 83 444 l 731 444 l 707 301 l 58 301 l 83 444 z "},"—":{"ha":1217,"x_min":58,"x_max":1171,"o":"m 83 444 l 1171 444 l 1146 301 l 58 301 l 83 444 z "},"“":{"ha":619,"x_min":108,"x_max":651,"o":"m 222 539 q 140 574 171 539 q 108 665 108 608 q 124 745 108 704 q 166 825 140 786 q 225 900 192 864 q 293 965 258 936 l 357 908 q 306 846 329 878 q 282 775 282 814 q 290 741 282 756 q 306 713 297 726 q 322 682 314 699 q 329 640 329 665 q 298 567 329 596 q 222 539 267 539 m 517 539 q 433 574 464 539 q 403 665 403 608 q 419 745 403 704 q 460 825 435 786 q 519 900 486 864 q 588 965 553 936 l 651 908 q 599 846 622 878 q 576 775 576 814 q 584 741 576 756 q 600 713 592 726 q 616 682 608 699 q 624 640 624 665 q 592 567 624 596 q 517 539 561 539 z "},"”":{"ha":619,"x_min":111,"x_max":654,"o":"m 111 574 q 163 635 139 603 q 186 706 186 667 q 178 740 186 726 q 163 768 171 754 q 147 799 154 782 q 139 840 139 815 q 170 913 139 885 q 246 942 201 942 q 328 908 297 942 q 360 815 360 874 q 344 735 360 775 q 302 656 328 694 q 243 581 276 617 q 175 515 210 546 l 111 574 m 404 574 q 456 635 433 603 q 479 706 479 667 q 472 740 479 726 q 456 768 464 754 q 440 799 447 782 q 432 840 432 815 q 463 913 432 885 q 539 942 494 942 q 623 908 592 942 q 654 815 654 874 q 638 735 654 775 q 597 656 622 694 q 538 581 571 617 q 469 515 504 546 l 404 574 z "},"‘":{"ha":326,"x_min":108,"x_max":357,"o":"m 222 539 q 140 574 171 539 q 108 665 108 608 q 124 745 108 704 q 166 825 140 786 q 225 900 192 864 q 293 965 258 936 l 357 908 q 306 846 329 878 q 282 775 282 814 q 290 741 282 756 q 306 713 297 726 q 322 682 314 699 q 329 640 329 665 q 298 567 329 596 q 222 539 267 539 z "},"’":{"ha":326,"x_min":111,"x_max":360,"o":"m 111 574 q 163 635 139 603 q 186 706 186 667 q 178 740 186 726 q 163 768 171 754 q 147 799 154 782 q 139 840 139 815 q 170 913 139 885 q 246 942 201 942 q 328 908 297 942 q 360 815 360 874 q 344 735 360 775 q 302 656 328 694 q 243 581 276 617 q 175 515 210 546 l 111 574 z "},"÷":{"ha":1496,"x_min":97,"x_max":1389,"o":"m 513 718 l 622 718 l 622 383 l 896 718 l 1022 718 l 743 382 l 1039 0 l 904 0 l 622 364 l 622 0 l 513 0 l 513 718 m 1285 -187 l 1285 897 l 200 897 l 200 -187 l 1285 -187 m 97 1000 l 1389 1000 l 1389 -292 l 97 -292 l 97 1000 z "},"◊":{"ha":1496,"x_min":97,"x_max":1389,"o":"m 513 718 l 622 718 l 622 383 l 896 718 l 1022 718 l 743 382 l 1039 0 l 904 0 l 622 364 l 622 0 l 513 0 l 513 718 m 1285 -187 l 1285 897 l 200 897 l 200 -187 l 1285 -187 m 97 1000 l 1389 1000 l 1389 -292 l 97 -292 l 97 1000 z "},"ÿ":{"ha":690,"x_min":-122,"x_max":736,"o":"m 7 -312 q -81 -303 -51 -312 q -122 -287 -111 -294 l -61 -144 q -35 -154 -54 -149 q 15 -160 -17 -160 q 72 -151 47 -160 q 119 -124 97 -143 q 163 -74 142 -106 q 208 1 183 -43 l 75 676 l 264 676 l 324 290 q 329 230 328 260 q 332 190 331 200 l 335 190 q 348 230 338 200 q 371 290 358 260 l 547 676 l 736 676 l 403 36 q 315 -121 357 -56 q 228 -229 274 -186 q 128 -292 182 -272 q 7 -312 75 -312 m 231 757 q 158 785 186 757 q 131 853 131 813 q 158 921 131 893 q 231 949 186 949 q 302 921 275 949 q 329 853 329 893 q 301 785 329 813 q 231 757 274 757 m 519 757 q 448 785 475 757 q 421 853 421 813 q 448 921 421 893 q 519 949 475 949 q 592 921 564 949 q 619 853 619 893 q 592 785 619 813 q 519 757 564 757 z "},"Ÿ":{"ha":824,"x_min":122,"x_max":906,"o":"m 324 349 l 122 925 l 322 925 l 450 525 l 451 525 l 707 925 l 906 925 l 515 349 l 453 0 l 260 0 l 324 349 m 353 1007 q 281 1035 308 1007 q 253 1103 253 1063 q 281 1171 253 1143 q 353 1199 308 1199 q 424 1171 397 1199 q 451 1103 451 1143 q 424 1035 451 1063 q 353 1007 396 1007 m 642 1007 q 570 1035 597 1007 q 543 1103 543 1063 q 570 1171 543 1143 q 642 1199 597 1199 q 714 1171 686 1199 q 742 1103 742 1143 q 714 1035 742 1063 q 642 1007 686 1007 z "},"⁄":{"ha":569,"x_min":-104,"x_max":735,"o":"m 565 1000 l 735 1000 l 64 -157 l -104 -157 l 565 1000 z "},"∕":{"ha":569,"x_min":-104,"x_max":735,"o":"m 565 1000 l 735 1000 l 64 -157 l -104 -157 l 565 1000 z "},"¤":{"ha":764,"x_min":25,"x_max":851,"o":"m 61 497 l 83 625 l 169 625 q 240 754 197 696 q 338 854 282 813 q 464 919 394 896 q 617 942 533 942 q 701 937 665 942 q 765 924 738 932 q 813 905 792 915 q 851 882 833 894 l 756 739 q 697 768 732 754 q 599 782 661 782 q 463 739 519 782 q 372 625 407 696 l 594 625 l 572 497 l 332 497 q 326 458 329 478 q 322 418 324 438 l 558 418 l 536 290 l 324 290 q 376 183 335 222 q 496 144 417 144 q 594 165 550 144 q 667 206 638 186 l 724 60 q 622 8 683 32 q 465 -17 561 -17 q 322 7 383 -17 q 220 72 261 31 q 156 170 179 114 q 125 290 132 226 l 25 290 l 47 418 l 125 418 q 129 458 126 438 q 135 497 132 478 l 61 497 z "},"‹":{"ha":419,"x_min":33,"x_max":438,"o":"m 33 338 l 243 608 l 438 608 l 221 332 l 332 74 l 150 74 l 33 338 z "},"›":{"ha":424,"x_min":-14,"x_max":388,"o":"m 200 350 l 89 608 l 271 608 l 388 343 l 179 74 l -14 74 l 200 350 z "},"ﬁ":{"ha":792,"x_min":-176,"x_max":756,"o":"m 244 -28 q 211 -153 232 -99 q 156 -244 190 -208 q 69 -299 122 -281 q -61 -318 17 -318 q -126 -312 -97 -318 q -176 -297 -154 -306 l -128 -158 q -95 -169 -112 -165 q -54 -174 -78 -174 q 25 -136 -1 -174 q 63 -39 51 -99 l 169 542 l 53 542 l 76 676 l 194 676 l 204 729 q 314 948 232 882 q 535 1014 396 1014 q 667 998 618 1014 q 749 963 717 982 l 674 832 q 623 855 656 843 q 542 867 590 867 q 436 838 475 867 q 383 732 397 810 l 374 676 l 756 676 l 633 0 l 453 0 l 551 542 l 349 542 l 244 -28 z "},"ﬂ":{"ha":804,"x_min":-176,"x_max":824,"o":"m 53 542 l 76 676 l 193 676 l 207 751 q 312 952 233 890 q 542 1014 390 1014 q 707 997 639 1014 q 824 961 775 981 l 650 0 l 471 0 l 624 853 q 580 863 604 860 q 522 867 556 867 q 431 841 464 867 q 386 746 399 815 l 374 676 l 507 676 l 485 542 l 349 542 l 244 -28 q 211 -153 232 -99 q 156 -244 190 -208 q 69 -299 122 -281 q -61 -318 17 -318 q -126 -312 -97 -318 q -176 -297 -154 -306 l -128 -158 q -95 -169 -112 -165 q -54 -174 -78 -174 q 25 -136 -1 -174 q 63 -39 51 -99 l 168 542 l 53 542 z "},"‡":{"ha":764,"x_min":3,"x_max":771,"o":"m 210 -71 l 257 75 l 154 63 l 3 63 l 32 225 l 183 225 l 281 211 l 285 369 l 338 528 l 236 515 l 85 515 l 114 676 l 265 676 l 361 664 l 369 810 l 403 1000 l 599 1000 l 565 810 l 519 664 l 621 676 l 771 676 l 743 515 l 592 515 l 494 528 l 490 369 l 438 211 l 538 225 l 689 225 l 660 63 l 510 63 l 414 75 l 406 -71 l 376 -235 l 181 -235 l 210 -71 z "},"·":{"ha":386,"x_min":81,"x_max":318,"o":"m 200 288 q 115 321 150 288 q 81 403 81 354 q 115 485 81 451 q 200 518 150 518 q 245 509 224 518 q 283 485 267 500 q 308 449 299 469 q 318 403 318 428 q 283 321 318 354 q 200 288 249 288 z "},"∙":{"ha":386,"x_min":81,"x_max":318,"o":"m 200 288 q 115 321 150 288 q 81 403 81 354 q 115 485 81 451 q 200 518 150 518 q 245 509 224 518 q 283 485 267 500 q 308 449 299 469 q 318 403 318 428 q 283 321 318 354 q 200 288 249 288 z "},"‚":{"ha":326,"x_min":-6,"x_max":243,"o":"m -6 -158 q 47 -97 24 -129 q 69 -26 69 -65 q 62 8 69 -6 q 46 36 54 22 q 30 67 38 50 q 22 108 22 83 q 53 181 22 153 q 129 210 85 210 q 212 176 181 210 q 243 83 243 142 q 227 3 243 43 q 185 -76 211 -37 q 126 -151 160 -115 q 58 -217 93 -186 l -6 -158 z "},"„":{"ha":619,"x_min":-6,"x_max":538,"o":"m -6 -158 q 47 -97 24 -129 q 69 -26 69 -65 q 62 8 69 -6 q 46 36 54 22 q 30 67 38 50 q 22 108 22 83 q 53 181 22 153 q 129 210 85 210 q 212 176 181 210 q 243 83 243 142 q 227 3 243 43 q 185 -76 211 -37 q 126 -151 160 -115 q 58 -217 93 -186 l -6 -158 m 288 -158 q 340 -97 317 -129 q 363 -26 363 -65 q 356 8 363 -6 q 340 36 349 22 q 324 67 331 50 q 317 108 317 83 q 348 181 317 153 q 424 210 379 210 q 506 176 475 210 q 538 83 538 142 q 522 3 538 43 q 480 -76 506 -37 q 421 -151 454 -115 q 353 -217 388 -186 l 288 -158 z "},"‰":{"ha":1688,"x_min":50,"x_max":1638,"o":"m 878 96 q 947 135 922 96 q 972 228 972 175 q 956 284 972 264 q 908 304 940 304 q 839 266 864 304 q 814 175 814 228 q 830 117 814 138 q 878 96 846 96 m 1389 96 q 1458 135 1433 96 q 1483 228 1483 175 q 1467 284 1483 264 q 1419 304 1451 304 q 1350 266 1375 304 q 1325 175 1325 228 q 1341 117 1325 138 q 1389 96 1357 96 m 268 372 q 338 412 314 372 q 363 506 363 451 q 347 560 363 540 q 300 581 332 581 q 229 542 254 581 q 204 451 204 504 q 220 394 204 415 q 268 372 236 372 m 864 -17 q 776 -2 814 -17 q 712 38 738 13 q 673 96 686 63 q 660 167 660 129 q 678 260 660 215 q 730 340 696 306 q 813 396 764 375 q 921 417 861 417 q 1074 364 1022 417 q 1125 233 1125 311 q 1107 138 1125 183 q 1056 58 1089 93 q 974 3 1022 24 q 864 -17 925 -17 m 1375 -17 q 1288 -2 1325 -17 q 1224 38 1250 13 q 1184 96 1197 63 q 1171 167 1171 129 q 1189 260 1171 215 q 1240 340 1207 306 q 1322 396 1274 375 q 1432 417 1371 417 q 1585 364 1533 417 q 1638 233 1638 311 q 1619 138 1638 183 q 1567 58 1601 93 q 1485 3 1533 24 q 1375 -17 1436 -17 m 774 678 l 924 678 l 404 0 l 254 0 l 774 678 m 254 260 q 166 274 204 260 q 102 315 128 289 q 63 374 76 340 q 50 444 50 407 q 68 538 50 493 q 119 617 86 583 q 201 672 153 651 q 311 693 250 693 q 465 642 414 693 q 517 511 517 590 q 498 415 517 461 q 445 335 479 369 q 363 281 411 301 q 254 260 314 260 z "},"Â":{"ha":917,"x_min":-40,"x_max":835,"o":"m 547 556 q 539 617 542 588 q 533 669 536 646 q 528 721 531 696 l 525 721 q 503 669 515 696 q 478 617 492 646 q 449 556 464 588 l 331 331 l 582 331 l 547 556 m 158 0 l -40 0 l 474 925 l 660 925 l 835 0 l 632 0 l 606 174 l 249 174 l 158 0 m 496 1224 l 633 1224 l 764 1003 l 619 1003 l 547 1099 l 443 1003 l 285 1003 l 496 1224 z "},"Ê":{"ha":725,"x_min":53,"x_max":740,"o":"m 217 925 l 740 925 l 711 764 l 379 764 l 342 556 l 635 556 l 607 403 l 315 403 l 271 161 l 614 161 l 585 0 l 53 0 l 217 925 m 444 1224 l 582 1224 l 713 1003 l 568 1003 l 496 1099 l 392 1003 l 233 1003 l 444 1224 z "},"Á":{"ha":917,"x_min":-40,"x_max":901,"o":"m 547 556 q 539 617 542 588 q 533 669 536 646 q 528 721 531 696 l 525 721 q 503 669 515 696 q 478 617 492 646 q 449 556 464 588 l 331 331 l 582 331 l 547 556 m 158 0 l -40 0 l 474 925 l 660 925 l 835 0 l 632 0 l 606 174 l 249 174 l 158 0 m 665 1189 l 901 1189 l 679 1001 l 519 1001 l 665 1189 z "},"Ë":{"ha":725,"x_min":53,"x_max":740,"o":"m 217 925 l 740 925 l 711 764 l 379 764 l 342 556 l 635 556 l 607 403 l 315 403 l 271 161 l 614 161 l 585 0 l 53 0 l 217 925 m 347 1007 q 275 1035 303 1007 q 247 1103 247 1063 q 275 1171 247 1143 q 347 1199 303 1199 q 419 1171 392 1199 q 446 1103 446 1143 q 418 1035 446 1063 q 347 1007 390 1007 m 636 1007 q 565 1035 592 1007 q 538 1103 538 1063 q 565 1171 538 1143 q 636 1199 592 1199 q 708 1171 681 1199 q 736 1103 736 1143 q 708 1035 736 1063 q 636 1007 681 1007 z "},"È":{"ha":725,"x_min":53,"x_max":740,"o":"m 217 925 l 740 925 l 711 764 l 379 764 l 342 556 l 635 556 l 607 403 l 315 403 l 271 161 l 614 161 l 585 0 l 53 0 l 217 925 m 268 1189 l 496 1189 l 578 1001 l 424 1001 l 268 1189 z "},"Í":{"ha":435,"x_min":60,"x_max":656,"o":"m 225 925 l 418 925 l 253 0 l 60 0 l 225 925 m 419 1189 l 656 1189 l 433 1001 l 274 1001 l 419 1189 z "},"Î":{"ha":435,"x_min":54,"x_max":533,"o":"m 225 925 l 418 925 l 253 0 l 60 0 l 225 925 m 265 1224 l 403 1224 l 533 1003 l 389 1003 l 317 1099 l 213 1003 l 54 1003 l 265 1224 z "},"Ï":{"ha":435,"x_min":60,"x_max":561,"o":"m 225 925 l 418 925 l 253 0 l 60 0 l 225 925 m 172 1007 q 100 1035 128 1007 q 72 1103 72 1063 q 100 1171 72 1143 q 172 1199 128 1199 q 244 1171 217 1199 q 271 1103 271 1143 q 243 1035 271 1063 q 172 1007 215 1007 m 461 1007 q 390 1035 417 1007 q 363 1103 363 1063 q 390 1171 363 1143 q 461 1199 417 1199 q 533 1171 506 1199 q 561 1103 561 1143 q 533 1035 561 1063 q 461 1007 506 1007 z "},"Ì":{"ha":435,"x_min":60,"x_max":418,"o":"m 225 925 l 418 925 l 253 0 l 60 0 l 225 925 m 82 1189 l 310 1189 l 392 1001 l 238 1001 l 82 1189 z "},"Ó":{"ha":1043,"x_min":72,"x_max":1015,"o":"m 494 142 q 631 176 571 142 q 731 266 690 210 q 792 393 771 322 q 813 539 813 464 q 800 635 813 590 q 761 713 788 679 q 694 765 735 746 q 596 783 653 783 q 458 750 518 783 q 358 661 399 717 q 296 535 317 606 q 275 390 275 465 q 289 292 275 338 q 330 214 303 247 q 399 161 357 181 q 494 142 440 142 m 482 -17 q 306 15 382 -17 q 177 103 229 47 q 99 232 125 158 q 72 388 72 306 q 110 593 72 493 q 219 771 149 693 q 388 895 289 849 q 610 942 488 942 q 788 910 711 942 q 915 824 864 878 q 990 697 965 769 q 1015 542 1015 624 q 978 334 1015 435 q 872 156 940 233 q 703 31 803 78 q 482 -17 604 -17 m 713 1189 l 949 1189 l 726 1001 l 567 1001 l 713 1189 z "},"Ô":{"ha":1043,"x_min":72,"x_max":1015,"o":"m 494 142 q 631 176 571 142 q 731 266 690 210 q 792 393 771 322 q 813 539 813 464 q 800 635 813 590 q 761 713 788 679 q 694 765 735 746 q 596 783 653 783 q 458 750 518 783 q 358 661 399 717 q 296 535 317 606 q 275 390 275 465 q 289 292 275 338 q 330 214 303 247 q 399 161 357 181 q 494 142 440 142 m 482 -17 q 306 15 382 -17 q 177 103 229 47 q 99 232 125 158 q 72 388 72 306 q 110 593 72 493 q 219 771 149 693 q 388 895 289 849 q 610 942 488 942 q 788 910 711 942 q 915 824 864 878 q 990 697 965 769 q 1015 542 1015 624 q 978 334 1015 435 q 872 156 940 233 q 703 31 803 78 q 482 -17 604 -17 m 561 1224 l 699 1224 l 829 1003 l 685 1003 l 613 1099 l 508 1003 l 350 1003 l 561 1224 z "},"Ò":{"ha":1043,"x_min":72,"x_max":1015,"o":"m 494 142 q 631 176 571 142 q 731 266 690 210 q 792 393 771 322 q 813 539 813 464 q 800 635 813 590 q 761 713 788 679 q 694 765 735 746 q 596 783 653 783 q 458 750 518 783 q 358 661 399 717 q 296 535 317 606 q 275 390 275 465 q 289 292 275 338 q 330 214 303 247 q 399 161 357 181 q 494 142 440 142 m 482 -17 q 306 15 382 -17 q 177 103 229 47 q 99 232 125 158 q 72 388 72 306 q 110 593 72 493 q 219 771 149 693 q 388 895 289 849 q 610 942 488 942 q 788 910 711 942 q 915 824 864 878 q 990 697 965 769 q 1015 542 1015 624 q 978 334 1015 435 q 872 156 940 233 q 703 31 803 78 q 482 -17 604 -17 m 382 1189 l 610 1189 l 692 1001 l 538 1001 l 382 1189 z "},"Ú":{"ha":972,"x_min":97,"x_max":968,"o":"m 451 -17 q 277 10 349 -17 q 164 88 206 38 q 110 208 122 138 q 113 368 97 279 l 210 925 l 403 925 l 306 375 q 321 199 283 253 q 467 144 358 144 q 556 158 518 144 q 620 199 593 171 q 665 269 647 226 q 693 368 682 311 l 792 925 l 968 925 l 868 356 q 735 76 835 168 q 451 -17 636 -17 m 665 1189 l 901 1189 l 679 1001 l 519 1001 l 665 1189 z "},"Û":{"ha":972,"x_min":97,"x_max":968,"o":"m 451 -17 q 277 10 349 -17 q 164 88 206 38 q 110 208 122 138 q 113 368 97 279 l 210 925 l 403 925 l 306 375 q 321 199 283 253 q 467 144 358 144 q 556 158 518 144 q 620 199 593 171 q 665 269 647 226 q 693 368 682 311 l 792 925 l 968 925 l 868 356 q 735 76 835 168 q 451 -17 636 -17 m 549 1224 l 686 1224 l 817 1003 l 672 1003 l 600 1099 l 496 1003 l 338 1003 l 549 1224 z "},"Ù":{"ha":972,"x_min":97,"x_max":968,"o":"m 451 -17 q 277 10 349 -17 q 164 88 206 38 q 110 208 122 138 q 113 368 97 279 l 210 925 l 403 925 l 306 375 q 321 199 283 253 q 467 144 358 144 q 556 158 518 144 q 620 199 593 171 q 665 269 647 226 q 693 368 682 311 l 792 925 l 968 925 l 868 356 q 735 76 835 168 q 451 -17 636 -17 m 364 1189 l 592 1189 l 674 1001 l 519 1001 l 364 1189 z "},"ı":{"ha":374,"x_min":36,"x_max":339,"o":"m 158 676 l 339 676 l 215 0 l 36 0 l 158 676 z "},"ˆ":{"ha":694,"x_min":176,"x_max":656,"o":"m 388 974 l 525 974 l 656 753 l 511 753 l 439 849 l 335 753 l 176 753 l 388 974 z "},"˜":{"ha":694,"x_min":199,"x_max":669,"o":"m 501 758 q 451 766 471 758 q 414 783 431 774 q 381 799 397 792 q 344 807 365 807 q 299 792 321 807 q 265 767 278 778 l 199 839 q 228 875 211 857 q 267 908 246 893 q 312 933 288 924 q 364 943 336 943 q 415 935 394 943 q 451 919 435 928 q 483 902 468 910 q 519 894 499 894 q 569 909 547 894 q 601 936 590 924 l 669 864 q 639 827 657 846 q 599 793 621 808 q 553 768 578 778 q 501 758 528 758 z "},"¯":{"ha":694,"x_min":231,"x_max":642,"o":"m 254 913 l 642 913 l 618 781 l 231 781 l 254 913 z "},"ˉ":{"ha":694,"x_min":231,"x_max":642,"o":"m 254 913 l 642 913 l 618 781 l 231 781 l 254 913 z "},"˘":{"ha":694,"x_min":218,"x_max":679,"o":"m 428 736 q 342 749 382 736 q 274 788 301 761 q 232 853 246 814 q 222 946 218 892 l 367 946 q 378 881 363 906 q 435 856 394 856 q 528 946 508 856 l 679 946 q 640 849 665 889 q 580 783 614 808 q 506 747 546 758 q 428 736 467 736 z "},"˙":{"ha":694,"x_min":338,"x_max":543,"o":"m 440 771 q 367 800 396 771 q 338 871 338 829 q 367 941 338 911 q 440 971 396 971 q 514 941 485 971 q 543 871 543 911 q 514 800 543 829 q 440 771 485 771 z "},"˚":{"ha":686,"x_min":292,"x_max":592,"o":"m 442 826 q 488 848 472 826 q 504 897 504 869 q 488 947 504 926 q 442 967 472 967 q 396 947 413 967 q 379 897 379 926 q 396 848 379 869 q 442 826 413 826 m 442 749 q 385 760 413 749 q 338 790 358 771 q 304 837 317 810 q 292 896 292 864 q 304 955 292 928 q 338 1002 317 982 q 385 1033 358 1022 q 442 1044 413 1044 q 498 1033 471 1044 q 546 1003 525 1022 q 579 956 567 983 q 592 897 592 929 q 579 837 592 864 q 546 790 567 810 q 498 760 525 771 q 442 749 471 749 z "},"¸":{"ha":694,"x_min":128,"x_max":417,"o":"m 243 -319 q 170 -312 199 -319 q 128 -299 142 -306 l 158 -217 q 183 -226 168 -221 q 224 -231 199 -231 q 271 -219 253 -231 q 289 -182 289 -207 q 281 -154 289 -165 q 258 -137 272 -143 q 226 -131 244 -132 q 190 -131 208 -129 l 240 4 l 347 4 l 317 -76 q 389 -114 361 -86 q 417 -189 417 -142 q 369 -283 417 -247 q 243 -319 322 -319 z "},"˝":{"ha":694,"x_min":89,"x_max":724,"o":"m 239 939 l 449 939 l 236 751 l 89 751 l 239 939 m 513 939 l 724 939 l 510 751 l 363 751 l 513 939 z "},"˛":{"ha":694,"x_min":94,"x_max":356,"o":"m 242 -319 q 133 -287 172 -319 q 94 -203 94 -256 q 107 -139 94 -169 q 139 -83 119 -108 q 182 -36 158 -57 q 226 0 206 -15 l 331 0 q 258 -83 290 -40 q 226 -172 226 -126 q 283 -221 226 -221 q 342 -211 318 -221 l 356 -294 q 310 -311 340 -303 q 242 -319 281 -319 z "},"ˇ":{"ha":694,"x_min":213,"x_max":697,"o":"m 213 972 l 358 972 l 432 879 l 540 972 l 697 972 l 483 751 l 347 751 l 213 972 z "},"ł":{"ha":404,"x_min":32,"x_max":485,"o":"m 253 0 l 74 0 q 104 171 90 94 q 115 234 110 203 q 125 289 121 265 q 135 342 131 317 l 32 281 l 57 421 l 160 483 l 253 1000 l 432 1000 l 361 604 l 485 679 l 460 538 l 336 463 l 253 0 z "},"Š":{"ha":682,"x_min":-15,"x_max":686,"o":"m 279 -17 q 170 -6 218 -17 q 86 22 122 6 q 25 55 50 38 q -15 86 0 72 l 90 218 q 119 195 101 208 q 160 170 136 182 q 215 150 183 158 q 286 142 246 142 q 393 171 361 142 q 425 244 425 200 q 417 286 425 268 q 392 322 408 304 q 348 362 375 340 q 283 413 321 383 q 222 466 251 439 q 168 526 192 493 q 130 597 144 558 q 115 686 115 636 q 139 798 115 750 q 204 878 163 846 q 302 926 246 910 q 425 942 358 942 q 519 933 479 942 q 590 913 560 925 q 640 888 619 901 q 675 864 661 875 l 583 728 q 520 767 560 747 q 419 788 481 788 q 331 763 360 788 q 303 694 303 739 q 311 655 303 672 q 335 620 319 638 q 374 584 350 603 q 429 540 397 565 q 497 487 463 514 q 557 427 531 460 q 600 353 583 394 q 617 258 617 313 q 595 148 617 199 q 531 61 574 97 q 426 4 489 25 q 279 -17 363 -17 m 201 1222 l 347 1222 l 421 1129 l 529 1222 l 686 1222 l 472 1001 l 336 1001 l 201 1222 z "},"š":{"ha":524,"x_min":-29,"x_max":597,"o":"m 194 -17 q 113 -10 149 -17 q 51 8 78 -3 q 3 30 24 18 q -29 51 -17 42 l 46 174 q 106 139 71 157 q 190 121 142 121 q 253 138 232 121 q 274 183 274 156 q 244 244 274 214 q 171 318 214 274 q 106 401 132 358 q 79 501 79 443 q 142 641 79 588 q 319 694 206 694 q 436 678 388 694 q 519 635 485 663 l 440 518 q 394 544 424 531 q 326 558 365 558 q 254 501 254 558 q 278 451 254 476 q 340 388 301 426 q 385 340 364 363 q 423 292 407 317 q 448 242 439 268 q 457 183 457 215 q 391 37 457 90 q 194 -17 325 -17 m 113 972 l 258 972 l 332 879 l 440 972 l 597 972 l 383 751 l 247 751 l 113 972 z "},"Ý":{"ha":824,"x_min":122,"x_max":906,"o":"m 324 349 l 122 925 l 322 925 l 450 525 l 451 525 l 707 925 l 906 925 l 515 349 l 453 0 l 260 0 l 324 349 m 583 1189 l 819 1189 l 597 1001 l 438 1001 l 583 1189 z "},"ý":{"ha":690,"x_min":-122,"x_max":736,"o":"m 7 -312 q -81 -303 -51 -312 q -122 -287 -111 -294 l -61 -144 q -35 -154 -54 -149 q 15 -160 -17 -160 q 72 -151 47 -160 q 119 -124 97 -143 q 163 -74 142 -106 q 208 1 183 -43 l 75 676 l 264 676 l 324 290 q 329 230 328 260 q 332 190 331 200 l 335 190 q 348 230 338 200 q 371 290 358 260 l 547 676 l 736 676 l 403 36 q 315 -121 357 -56 q 228 -229 274 -186 q 128 -292 182 -272 q 7 -312 75 -312 m 475 939 l 711 939 l 489 751 l 329 751 l 475 939 z "},"Þ":{"ha":813,"x_min":53,"x_max":792,"o":"m 396 326 q 548 375 500 326 q 596 506 596 424 q 563 593 596 563 q 451 624 529 624 l 357 624 l 304 326 l 396 326 m 217 925 l 408 925 l 383 774 l 483 774 q 608 758 551 774 q 705 710 664 742 q 769 633 746 679 q 792 526 792 586 q 761 373 792 439 q 676 264 731 307 q 544 199 621 221 q 374 178 467 178 l 276 178 l 244 0 l 53 0 l 217 925 z "},"þ":{"ha":729,"x_min":-36,"x_max":696,"o":"m 292 117 q 376 139 336 117 q 444 202 415 161 q 491 302 474 243 q 508 436 508 361 q 494 510 508 482 q 447 538 479 538 q 328 444 388 538 q 229 163 269 350 l 222 125 q 247 119 231 122 q 292 117 263 117 m 200 1000 l 379 1000 l 319 675 q 301 586 311 629 q 283 518 290 543 l 286 518 q 330 586 307 554 q 381 642 353 618 q 443 681 408 667 q 522 694 478 694 q 649 632 603 694 q 696 465 696 569 q 666 267 696 356 q 582 115 636 178 q 453 17 528 51 q 292 -17 379 -17 q 231 -13 254 -17 q 197 -7 208 -10 l 143 -303 l -36 -303 l 200 1000 z "},"Ž":{"ha":757,"x_min":-12,"x_max":800,"o":"m 11 128 l 528 768 l 142 768 l 171 925 l 800 925 l 778 800 l 257 157 l 676 157 l 649 0 l -12 0 l 11 128 m 261 1222 l 407 1222 l 481 1129 l 589 1222 l 746 1222 l 532 1001 l 396 1001 l 261 1222 z "},"ž":{"ha":621,"x_min":-12,"x_max":638,"o":"m 4 100 l 369 538 l 93 538 l 118 676 l 622 676 l 603 569 l 243 139 l 533 139 l 510 0 l -12 0 l 4 100 m 153 972 l 299 972 l 372 879 l 481 972 l 638 972 l 424 751 l 288 751 l 153 972 z "},"½":{"ha":1496,"x_min":97,"x_max":1389,"o":"m 513 718 l 622 718 l 622 383 l 896 718 l 1022 718 l 743 382 l 1039 0 l 904 0 l 622 364 l 622 0 l 513 0 l 513 718 m 1285 -187 l 1285 897 l 200 897 l 200 -187 l 1285 -187 m 97 1000 l 1389 1000 l 1389 -292 l 97 -292 l 97 1000 z "},"¼":{"ha":1496,"x_min":97,"x_max":1389,"o":"m 513 718 l 622 718 l 622 383 l 896 718 l 1022 718 l 743 382 l 1039 0 l 904 0 l 622 364 l 622 0 l 513 0 l 513 718 m 1285 -187 l 1285 897 l 200 897 l 200 -187 l 1285 -187 m 97 1000 l 1389 1000 l 1389 -292 l 97 -292 l 97 1000 z "},"¹":{"ha":1496,"x_min":97,"x_max":1389,"o":"m 513 718 l 622 718 l 622 383 l 896 718 l 1022 718 l 743 382 l 1039 0 l 904 0 l 622 364 l 622 0 l 513 0 l 513 718 m 1285 -187 l 1285 897 l 200 897 l 200 -187 l 1285 -187 m 97 1000 l 1389 1000 l 1389 -292 l 97 -292 l 97 1000 z "},"¾":{"ha":1496,"x_min":97,"x_max":1389,"o":"m 513 718 l 622 718 l 622 383 l 896 718 l 1022 718 l 743 382 l 1039 0 l 904 0 l 622 364 l 622 0 l 513 0 l 513 718 m 1285 -187 l 1285 897 l 200 897 l 200 -187 l 1285 -187 m 97 1000 l 1389 1000 l 1389 -292 l 97 -292 l 97 1000 z "},"³":{"ha":1496,"x_min":97,"x_max":1389,"o":"m 513 718 l 622 718 l 622 383 l 896 718 l 1022 718 l 743 382 l 1039 0 l 904 0 l 622 364 l 622 0 l 513 0 l 513 718 m 1285 -187 l 1285 897 l 200 897 l 200 -187 l 1285 -187 m 97 1000 l 1389 1000 l 1389 -292 l 97 -292 l 97 1000 z "},"²":{"ha":1496,"x_min":97,"x_max":1389,"o":"m 513 718 l 622 718 l 622 383 l 896 718 l 1022 718 l 743 382 l 1039 0 l 904 0 l 622 364 l 622 0 l 513 0 l 513 718 m 1285 -187 l 1285 897 l 200 897 l 200 -187 l 1285 -187 m 97 1000 l 1389 1000 l 1389 -292 l 97 -292 l 97 1000 z "},"¦":{"ha":1496,"x_min":97,"x_max":1389,"o":"m 513 718 l 622 718 l 622 383 l 896 718 l 1022 718 l 743 382 l 1039 0 l 904 0 l 622 364 l 622 0 l 513 0 l 513 718 m 1285 -187 l 1285 897 l 200 897 l 200 -187 l 1285 -187 m 97 1000 l 1389 1000 l 1389 -292 l 97 -292 l 97 1000 z "},"−":{"ha":1496,"x_min":97,"x_max":1389,"o":"m 513 718 l 622 718 l 622 383 l 896 718 l 1022 718 l 743 382 l 1039 0 l 904 0 l 622 364 l 622 0 l 513 0 l 513 718 m 1285 -187 l 1285 897 l 200 897 l 200 -187 l 1285 -187 m 97 1000 l 1389 1000 l 1389 -292 l 97 -292 l 97 1000 z "},"×":{"ha":1496,"x_min":97,"x_max":1389,"o":"m 513 718 l 622 718 l 622 383 l 896 718 l 1022 718 l 743 382 l 1039 0 l 904 0 l 622 364 l 622 0 l 513 0 l 513 718 m 1285 -187 l 1285 897 l 200 897 l 200 -187 l 1285 -187 m 97 1000 l 1389 1000 l 1389 -292 l 97 -292 l 97 1000 z "},"Ł":{"ha":719,"x_min":-4,"x_max":636,"o":"m 46 275 l -4 374 l 161 476 q 174 546 167 510 q 187 617 179 578 q 201 700 194 657 q 242 925 218 799 l 435 925 l 379 611 l 528 703 l 579 603 l 353 464 l 299 158 l 636 158 l 608 0 l 76 0 l 136 331 l 46 275 z "},"Ð":{"ha":972,"x_min":49,"x_max":947,"o":"m 497 539 l 472 401 l 329 401 l 286 157 l 393 157 q 545 186 479 157 q 655 267 611 215 q 721 392 699 319 q 743 550 743 464 q 682 715 743 661 q 490 768 621 768 l 394 768 l 354 539 l 497 539 m 49 401 l 72 539 l 161 539 l 229 925 l 501 925 q 698 899 614 925 q 838 824 782 872 q 920 708 893 776 q 947 557 947 640 q 911 344 947 446 q 801 167 875 243 q 617 45 728 90 q 358 0 507 0 l 65 0 l 136 401 l 49 401 z "},"ð":{"ha":717,"x_min":32,"x_max":700,"o":"m 513 494 q 471 528 497 514 q 400 542 444 542 q 327 521 360 542 q 271 463 294 500 q 234 376 247 426 q 221 267 221 325 q 244 160 221 200 q 325 121 268 121 q 403 153 369 121 q 460 239 438 186 q 497 358 483 292 q 513 494 510 425 m 342 719 l 279 792 l 347 847 q 175 874 278 874 l 226 1017 q 482 958 378 1017 l 596 1051 l 658 979 l 564 901 q 665 747 631 839 q 699 538 700 656 q 676 329 699 429 q 607 152 654 229 q 486 29 560 75 q 310 -17 413 -17 q 198 2 249 -17 q 110 56 147 21 q 53 143 74 92 q 32 261 32 194 q 63 435 32 358 q 145 567 94 513 q 260 649 196 621 q 392 678 325 678 q 459 669 432 678 q 506 649 486 661 q 433 794 486 743 l 342 719 z "}}}
